<?xml version="1.0" encoding="UTF-8" standalone="no"?>
<svg
   xmlns:dc="http://purl.org/dc/elements/1.1/"
   xmlns:cc="http://creativecommons.org/ns#"
   xmlns:rdf="http://www.w3.org/1999/02/22-rdf-syntax-ns#"
   xmlns:svg="http://www.w3.org/2000/svg"
   xmlns="http://www.w3.org/2000/svg"
   xmlns:sodipodi="http://sodipodi.sourceforge.net/DTD/sodipodi-0.dtd"
   xmlns:inkscape="http://www.inkscape.org/namespaces/inkscape"
   viewBox="0 0 93.150844 248.33373"
   id="svg2"
   version="1.1"
   inkscape:version="0.91 r13725"
   sodipodi:docname="reed.svg"
   width="26.289238mm"
   height="70.085297mm">
  <metadata
     id="metadata539">
    <rdf:RDF>
      <cc:Work
         rdf:about="">
        <dc:format>image/svg+xml</dc:format>
        <dc:type
           rdf:resource="http://purl.org/dc/dcmitype/StillImage" />
        <dc:title>sensors_V7</dc:title>
      </cc:Work>
    </rdf:RDF>
  </metadata>
  <sodipodi:namedview
     pagecolor="#ffffff"
     bordercolor="#666666"
     borderopacity="1"
     objecttolerance="10"
     gridtolerance="10"
     guidetolerance="10"
     inkscape:pageopacity="0"
     inkscape:pageshadow="2"
     inkscape:window-width="1107"
     inkscape:window-height="689"
     id="namedview537"
     showgrid="false"
     inkscape:zoom="0.51"
     inkscape:cx="179.15798"
     inkscape:cy="-92.570334"
     inkscape:window-x="136"
     inkscape:window-y="64"
     inkscape:window-maximized="0"
     inkscape:current-layer="svg2"
     units="mm"
     fit-margin-top="1"
     fit-margin-right="1"
     fit-margin-bottom="1"
     fit-margin-left="1" />
  <defs
     id="defs4">
    <style
       id="style6">.cls-1,.cls-3,.cls-4,.cls-5{fill:none;stroke-linecap:round;stroke-linejoin:round;}.cls-1{stroke:red;}.cls-2{font-size:8.5px;fill:blue;font-family:Helvetica, Helvetica;}.cls-3{stroke:blue;}.cls-4,.cls-5{stroke:#000;}.cls-4{stroke-width:0.07px;}</style>
  </defs>
  <title
     id="title8">sensors_V7</title>
  <line
     style="fill:none;stroke:#ff0000;stroke-linecap:round;stroke-linejoin:round"
     id="line11"
     y2="46.570431"
     x2="4.0504284"
     y1="4.0504284"
     x1="4.0504284"
     class="cls-1" />
  <polyline
     style="fill:none;stroke:#ff0000;stroke-linecap:round;stroke-linejoin:round"
     id="polyline75"
     points="565.84 190.11 565.84 326.08 565.84 387.83 650.89 387.83 650.89 326.08 650.89 190.11"
     class="cls-1"
     transform="translate(-561.7896,-143.53957)" />
  <line
     style="fill:none;stroke:#ff0000;stroke-linecap:round;stroke-linejoin:round"
     id="line99"
     y2="4.0504284"
     x2="89.100418"
     y1="46.570431"
     x1="89.100418"
     class="cls-1" />
  <line
     style="fill:none;stroke:#ff0000;stroke-linecap:round;stroke-linejoin:round"
     id="line101"
     y2="4.0504284"
     x2="4.0504284"
     y1="4.0504284"
     x1="89.100418"
     class="cls-1" />
  <line
     style="fill:none;stroke:#0000ff;stroke-linecap:round;stroke-linejoin:round"
     id="line136"
     y2="183.43044"
     x2="53.110424"
     y1="176.77043"
     x1="53.110424"
     class="cls-3" />
  <line
     style="fill:none;stroke:#0000ff;stroke-linecap:round;stroke-linejoin:round"
     id="line138"
     y2="183.74043"
     x2="64.460403"
     y1="176.45042"
     x1="64.460403"
     class="cls-3" />
  <path
     style="fill:none;stroke:#0000ff;stroke-linecap:round;stroke-linejoin:round"
     inkscape:connector-curvature="0"
     id="path140"
     d="m 44.720401,180.10043 c 0.07,-2.12 0.74,-3.41 1.81,-4 a 5.41,5.41 0 0 1 3.47,-0.13 c 1.17,0.24 2.34,0.62 3.6,0.88 a 29.06,29.06 0 0 0 9.12,0 c 1.25,-0.26 2.42,-0.64 3.6,-0.88 a 5.38,5.38 0 0 1 3.46,0.13 c 1.07,0.56 1.75,1.85 1.81,4 l 5.52,0"
     class="cls-3" />
  <path
     style="fill:none;stroke:#0000ff;stroke-linecap:round;stroke-linejoin:round"
     inkscape:connector-curvature="0"
     id="path142"
     d="m 71.590401,180.10043 c -0.06,2.11 -0.74,3.41 -1.81,4"
     class="cls-3" />
  <polyline
     style="fill:none;stroke:#0000ff;stroke-linecap:round;stroke-linejoin:round"
     id="polyline144"
     points="605.68 147.59 605.68 255.16 605.68 331.69"
     class="cls-3"
     transform="translate(-561.7896,-143.53957)" />
  <polyline
     style="fill:none;stroke:#0000ff;stroke-linecap:round;stroke-linejoin:round"
     id="polyline146"
     points="605.68 324.38 605.68 340.19 597.25 340.13 597.25 255.09 597.1 147.59"
     class="cls-3"
     transform="translate(-561.7896,-143.53957)" />
  <path
     style="fill:none;stroke:#0000ff;stroke-linecap:round;stroke-linejoin:round"
     inkscape:connector-curvature="0"
     id="path148"
     d="m 18.860401,222.33043 a 2.12,2.12 0 0 1 1.4,-2.67 8,8 0 0 1 1.73,-0.52 16,16 0 0 1 2.94,-0.18 c 5.11,0 10.15,0.07 15.22,0.09 l 14,0 c 5.07,0 10.11,-0.07 15.22,-0.09 a 16,16 0 0 1 2.94,0.18 8,8 0 0 1 1.73,0.52 2.85,2.85 0 0 1 0,5.34"
     class="cls-3" />
  <polyline
     style="fill:none;stroke:#0000ff;stroke-linecap:round;stroke-linejoin:round"
     id="polyline150"
     points="575.14 147.59 575.14 324.38 575.14 374.41 583.68 374.41 583.68 369.04"
     class="cls-3"
     transform="translate(-561.7896,-143.53957)" />
  <polyline
     style="fill:none;stroke:#0000ff;stroke-linecap:round;stroke-linejoin:round"
     id="polyline152"
     points="642.73 374.41 634.18 374.41 634.17 369.05"
     class="cls-3"
     transform="translate(-561.7896,-143.53957)" />
  <polyline
     style="fill:none;stroke:#0000ff;stroke-linecap:round;stroke-linejoin:round"
     id="polyline154"
     points="634.17 147.59 634.17 324.38 634.17 362.69"
     class="cls-3"
     transform="translate(-561.7896,-143.53957)" />
  <text
     style="font-size:8.5px;font-family:Helvetica, Helvetica;fill:#0000ff"
     id="text182"
     class="cls-2"
     x="43.780407"
     y="34.220425">R E E D</text>
  <line
     style="fill:none;stroke:#0000ff;stroke-linecap:round;stroke-linejoin:round"
     id="line300"
     y2="46.570431"
     x2="89.100418"
     y1="46.570431"
     x1="4.0504284"
     class="cls-3" />
  <line
     style="fill:none;stroke:#0000ff;stroke-linecap:round;stroke-linejoin:round"
     id="line426"
     y2="4.0504284"
     x2="21.890394"
     y1="219.15044"
     x1="21.890394"
     class="cls-3" />
  <line
     style="fill:none;stroke:#0000ff;stroke-linecap:round;stroke-linejoin:round"
     id="line428"
     y2="4.0504284"
     x2="80.920425"
     y1="230.87044"
     x1="80.920425"
     class="cls-3" />
  <line
     style="fill:none;stroke:#0000ff;stroke-linecap:round;stroke-linejoin:round"
     id="line430"
     y2="184.25044"
     x2="49.740429"
     y1="175.95042"
     x1="49.740429"
     class="cls-3" />
</svg>
