<?xml version="1.0" encoding="UTF-8" standalone="no"?>
<!-- Created with Inkscape (http://www.inkscape.org/) -->

<svg
   xmlns:dc="http://purl.org/dc/elements/1.1/"
   xmlns:cc="http://creativecommons.org/ns#"
   xmlns:rdf="http://www.w3.org/1999/02/22-rdf-syntax-ns#"
   xmlns:svg="http://www.w3.org/2000/svg"
   xmlns="http://www.w3.org/2000/svg"
   xmlns:sodipodi="http://sodipodi.sourceforge.net/DTD/sodipodi-0.dtd"
   xmlns:inkscape="http://www.inkscape.org/namespaces/inkscape"
   width="133.72014mm"
   height="72.69117mm"
   viewBox="0 0 473.81148 257.56714"
   id="svg2"
   version="1.1"
   inkscape:version="0.91 r13725"
   sodipodi:docname="digitalInput.svg">
  <defs
     id="defs4" />
  <sodipodi:namedview
     id="base"
     pagecolor="#ffffff"
     bordercolor="#666666"
     borderopacity="1.0"
     inkscape:pageopacity="0.0"
     inkscape:pageshadow="2"
     inkscape:zoom="1.16"
     inkscape:cx="139.1428"
     inkscape:cy="94.954404"
     inkscape:document-units="px"
     inkscape:current-layer="layer1"
     showgrid="false"
     fit-margin-top="1"
     fit-margin-right="1"
     fit-margin-bottom="1"
     fit-margin-left="1"
     inkscape:window-width="1280"
     inkscape:window-height="756"
     inkscape:window-x="124"
     inkscape:window-y="18"
     inkscape:window-maximized="0" />
  <metadata
     id="metadata7">
    <rdf:RDF>
      <cc:Work
         rdf:about="">
        <dc:format>image/svg+xml</dc:format>
        <dc:type
           rdf:resource="http://purl.org/dc/dcmitype/StillImage" />
        <dc:title></dc:title>
      </cc:Work>
    </rdf:RDF>
  </metadata>
  <g
     inkscape:label="Layer 1"
     inkscape:groupmode="layer"
     id="layer1"
     transform="translate(-9.9719922,-369.70334)">
    <text
       xml:space="preserve"
       style="font-style:normal;font-weight:normal;font-size:35px;line-height:125%;font-family:sans-serif;text-align:center;letter-spacing:0px;word-spacing:0px;text-anchor:middle;fill:#000000;fill-opacity:1;stroke:none;stroke-width:1px;stroke-linecap:butt;stroke-linejoin:miter;stroke-opacity:1"
       x="172.41379"
       y="497.18979"
       id="text4150"
       sodipodi:linespacing="125%"><tspan
         sodipodi:role="line"
         id="tspan4152"
         x="172.41379"
         y="497.18979">digitalInput3~</tspan></text>
    <path
       style="fill:#000000;fill-opacity:0.67336683;stroke:none;stroke-width:2;stroke-linecap:round;stroke-linejoin:round;stroke-miterlimit:4;stroke-dasharray:none;stroke-dashoffset:0;stroke-opacity:1"
       id="path4154"
       d="m 27.458598,450.8487 c 0.166667,5.8142 0.148688,11.64653 0.151484,17.4689 -0.0079,11.0368 -0.0308,22.07352 -0.04239,33.1103 0.06242,10.08638 -0.04644,20.16922 -0.128328,30.25332 -0.02772,3.83976 -0.06079,7.68118 -0.0097,11.52069 0.0033,0.17749 0.0065,0.35497 0.0098,0.53246 0,0 -5.558273,5.78927 -5.558273,5.78927 l 0,0 c 0.0065,-0.18883 0.01299,-0.37767 0.01949,-0.5665 0.127013,-3.94978 0.211611,-7.9046 0.314861,-11.85716 0.25738,-10.14926 0.462198,-20.30448 0.381203,-30.47088 -0.01532,-10.9666 -0.03127,-21.93431 -0.142435,-32.89891 -0.07378,-5.63285 -0.08371,-11.31098 -0.493281,-16.89293 0,0 5.497556,-5.98856 5.497556,-5.98856 z"
       inkscape:connector-curvature="0" />
    <path
       style="fill:#000000;fill-opacity:0.67336683;stroke:none;stroke-width:2;stroke-linecap:round;stroke-linejoin:round;stroke-miterlimit:4;stroke-dasharray:none;stroke-dashoffset:0;stroke-opacity:1"
       id="path4156"
       d="m 32.551255,450.86584 c 4.878351,-0.30943 9.778303,0.006 14.660792,0.12801 8.257305,0.18645 16.517428,0.22275 24.776846,0.25065 8.969213,0.0206 17.93846,0.0206 26.907654,0.0478 10.229743,0.026 20.459493,0.0309 30.689263,0.0157 9.99143,0.0229 19.97827,0.006 29.96663,-0.22168 10.13772,-0.2555 20.2602,-0.82192 30.39742,-1.10997 9.78146,-0.33647 19.54987,-0.91172 29.29951,-1.69716 11.42741,-0.81583 22.84429,-1.75135 34.28243,-2.43752 8.86518,-0.67823 17.74644,-1.14185 26.61467,-1.77998 5.63923,-0.42132 11.29064,-0.65142 16.94756,-0.71221 5.46601,-0.10631 10.94078,-0.34395 16.39438,-0.71263 4.26688,-0.36346 8.53843,-0.68091 12.81826,-0.8862 1.71768,-0.26942 3.61435,0.18685 5.2804,-0.30118 1.70918,-0.46687 3.50199,-0.46767 5.26963,-0.49545 3.43069,-0.0313 6.86162,-0.0275 10.29242,-0.0516 1.71159,-0.009 3.42324,-0.0309 5.13406,-0.0793 0.29782,-0.018 0.59547,-0.0114 0.89351,-0.004 0.35591,0.004 0.71181,-0.002 1.06758,-0.0106 0.60473,-0.0204 0.11478,-0.0477 0.66524,1.22034 0,0 -11.7276,4.82413 -11.7276,4.82413 l 0,0 c 0.80494,0.93133 1.11752,0.86309 0.617,0.84589 -0.3453,-0.009 -0.69074,-0.0146 -1.0362,-0.0107 -0.29412,0.006 -0.58794,0.0147 -0.88157,-0.007 -1.62402,-0.0587 -3.24952,-0.0785 -4.87469,-0.0863 -3.44038,-0.0166 -6.88284,-0.0194 -10.32021,0.13106 -1.79314,0.11567 -3.55834,0.32316 -5.31051,0.69359 -1.73312,0.0535 -3.46885,0.003 -5.20173,0.0795 -4.18245,0.1451 -8.35582,0.42067 -12.52731,0.72854 -5.48731,0.34634 -10.98736,0.62536 -16.48761,0.69816 -5.57784,0.10618 -11.15539,0.26498 -16.72057,0.63907 -8.73416,0.5352 -17.4801,0.88861 -26.20919,1.49835 -11.46572,0.68029 -22.91199,1.59295 -34.35642,2.51866 -9.78871,0.8095 -19.59767,1.39011 -29.42186,1.70094 -10.10475,0.2755 -20.19821,0.79018 -30.30354,1.04283 -10.00701,0.26222 -20.0139,0.28623 -30.02483,0.22487 -10.24775,-0.0144 -20.495472,-0.007 -30.743191,0.0199 -9.001486,0.0274 -18.003073,0.0327 -27.004585,0.0115 -8.313782,-0.0241 -16.627592,-0.0619 -24.940727,-0.16454 -5.025681,-0.0548 -10.108945,-0.32547 -15.09349,0.38711 0,0 10.210578,-6.93846 10.210578,-6.93846 z"
       inkscape:connector-curvature="0" />
    <path
       style="fill:#000000;fill-opacity:0.67336683;stroke:none;stroke-width:2;stroke-linecap:round;stroke-linejoin:round;stroke-miterlimit:4;stroke-dasharray:none;stroke-dashoffset:0;stroke-opacity:1"
       id="path4158"
       d="m 343.35121,443.07442 c 0.10729,3.11063 0.40327,6.20967 0.71048,9.29987 0.62477,6.17506 0.74809,12.39702 0.84826,18.60907 0.007,7.00663 0.16444,14.00489 0.755,20.97761 0.69859,5.59265 1.39408,11.18285 1.77052,16.82151 0.34037,3.75226 0.17418,7.50956 -0.015,11.26327 -0.19736,1.997 -0.43973,3.99829 -0.86228,5.94675 -0.1534,0.71199 -0.38928,1.39043 -0.52256,2.10838 -0.0689,0.76293 -0.48221,1.41385 -0.82837,2.05545 -0.53694,0.80808 -0.8857,1.71086 -1.07041,2.71284 -0.0946,0.48689 -0.1191,0.98761 -0.11947,1.48593 0.0323,0.17745 0.0647,0.3549 0.097,0.53235 0,0 -8.94947,4.33147 -8.94947,4.33147 l 0,0 c 0.083,0.12631 0.16609,0.25262 0.24913,0.37892 0.003,-0.57619 0.0507,-1.15045 0.0908,-1.72414 0.17922,-1.11802 0.37221,-2.20626 0.92471,-3.16122 0.33842,-0.50673 0.68058,-1.19703 0.93061,-1.58789 0.13026,-0.77882 0.30542,-1.5336 0.58935,-2.25495 0.5411,-1.87958 0.75722,-3.8533 1.07817,-5.79977 0.28494,-3.73456 0.54116,-7.4759 0.2569,-11.22583 -0.30908,-5.66189 -0.88519,-11.28655 -1.59542,-16.89618 -0.58809,-7.0054 -0.72473,-14.03789 -0.74729,-21.07623 -0.13723,-6.12955 -0.30065,-12.27534 -1.04511,-18.35124 -0.38424,-3.07593 -0.66946,-6.16855 -1.08463,-9.2371 0,0 8.53893,-5.20887 8.53893,-5.20887 z"
       inkscape:connector-curvature="0" />
    <path
       style="fill:#000000;fill-opacity:0.67336683;stroke:none;stroke-width:2;stroke-linecap:round;stroke-linejoin:round;stroke-miterlimit:4;stroke-dasharray:none;stroke-dashoffset:0;stroke-opacity:1"
       id="path4160"
       d="m 23.722755,528.00233 c 3.081308,-0.3033 6.204812,-0.29449 9.308077,-0.33131 5.974957,-0.0643 11.949954,0.0418 17.923123,-0.0823 8.722279,-0.12022 17.42436,-0.55334 26.123293,-1.01039 9.494382,-0.38645 18.994131,-0.72606 28.496252,-0.99633 9.92466,-0.48084 19.86992,-0.63404 29.80165,-0.99153 9.26007,-0.32416 18.5239,-0.54803 27.7758,-0.99049 9.35713,-0.38393 18.70981,-0.82333 28.06796,-1.19355 7.98358,-0.53969 15.99734,-0.70589 23.99654,-1.04892 8.04338,-0.38865 16.1015,-0.51389 24.15929,-0.59066 8.20773,-0.0396 16.40582,-0.37914 24.60942,-0.55787 6.1108,-0.28148 12.21711,-0.59736 18.33679,-0.75416 5.16206,-0.15717 10.31213,-0.44819 15.47791,-0.57176 6.5795,-0.35919 13.17039,-0.53728 19.76479,-0.65064 6.40488,-0.10557 12.81157,-0.13367 19.21786,-0.1396 5.3669,0.11323 10.71601,-0.19767 16.06745,-0.4393 2.60342,-0.23194 5.32033,0.0401 7.83524,-0.57532 1.24639,-0.31111 2.57185,-0.31348 3.87122,-0.36336 0.83311,-0.0121 1.66589,-0.0362 2.49912,-0.0439 0.60849,-0.006 0.39403,0.15896 0.81556,0.7745 -0.0283,0.14669 -0.0566,0.29338 -0.0849,0.44008 0,0 -11.83961,3.69125 -11.83961,3.69125 l 0,0 c 0.11503,0.0254 0.23006,0.0508 0.34509,0.0763 0.4454,0.48623 0.86846,0.62075 0.33687,0.61265 -0.78676,-0.007 -1.57441,-0.002 -2.35942,0.0413 -1.26864,0.0688 -2.50725,0.23221 -3.7319,0.48854 -2.52957,0.27908 -5.11809,0.0834 -7.66057,0.27245 -5.3177,0.20169 -10.63516,0.42025 -15.96291,0.32115 -6.36502,0.007 -12.73065,-7.4e-4 -19.09461,0.0999 -6.6384,0.13427 -13.26764,0.38355 -19.89179,0.73376 -5.17736,0.16963 -10.34241,0.50168 -15.52357,0.59172 -6.0415,0.15024 -12.07361,0.42657 -18.11216,0.62588 -8.17925,0.15881 -16.35398,0.45037 -24.53625,0.50411 -8.07263,0.0996 -16.14391,0.27206 -24.20213,0.65776 -7.96715,0.30612 -15.93967,0.5331 -23.89531,0.9918 -9.32684,0.36145 -18.65411,0.72465 -27.97537,1.15584 -9.2625,0.44205 -18.53542,0.69388 -27.80815,0.98638 -9.92245,0.2957 -19.85102,0.48694 -29.76238,0.96716 -9.512421,0.31451 -19.027119,0.61834 -28.531196,1.04694 -8.777968,0.46046 -17.558416,0.89841 -26.356328,1.09105 -6.061408,0.13505 -12.126016,0.0972 -18.187968,0.22174 -3.181892,0.0844 -6.400432,0.12975 -9.520254,0.64636 0,0 10.207431,-5.70723 10.207431,-5.70723 z"
       inkscape:connector-curvature="0" />
    <path
       style="fill:#000000;fill-opacity:0.67336683;stroke:none;stroke-width:2;stroke-linecap:round;stroke-linejoin:round;stroke-miterlimit:4;stroke-dasharray:none;stroke-dashoffset:0;stroke-opacity:1"
       id="path4162"
       d="m 52.95867,516.30458 c 1.931259,-0.63995 3.938742,-0.95681 5.956554,-1.15745 1.390942,-0.28808 2.719269,-0.81454 4.135078,-0.97415 1.330263,-0.0714 2.663331,-0.0439 3.994918,-0.0546 1.346025,0.006 2.692026,9.1e-4 4.038047,0.006 1.335453,-0.002 2.670885,10e-4 4.006353,0.007 1.224797,0.0135 2.449497,-0.0171 3.674199,-0.0191 0.791067,-0.009 1.582127,10e-4 2.373189,-0.009 0.499906,0.006 0.999903,-0.001 1.499616,-0.0153 0.611828,-0.006 1.085368,-0.0529 1.607709,0.28469 0.868545,0.41383 1.817423,0.50235 2.763913,0.56779 0.696268,0.0474 1.394223,0.0456 2.09147,0.0295 0.482645,-0.0146 0.96565,-0.007 1.448456,-0.008 0.278556,-0.002 0.557057,-0.008 0.835461,-0.0173 4.40684,-0.0341 -7.110055,5.20898 -10.678619,7.79485 -1.386286,0.62071 -2.856792,0.2205 -4.300476,0.0639 -1.875082,0.24747 -3.762204,0.34186 -5.650356,0.4282 -2.047957,-0.20287 -4.088843,-0.46739 -6.139899,-0.63905 -1.003758,-0.0838 -2.010666,-0.0876 -3.01699,-0.0868 -0.519225,-0.16539 -0.99276,0.14135 -1.3916,0.20158 -0.646351,0.0976 -1.479564,-0.075 -2.136521,-0.0991 -1.097015,-0.0523 -2.194857,-0.0762 -3.292892,-0.0911 -1.039369,-0.0725 -1.462531,-0.0202 -2.406847,0.38543 -0.819931,0.2816 -1.653916,0.40534 -2.510416,0.49467 -0.52198,0.0972 -1.214451,-0.24109 -1.474945,0.27885 28.674473,-16.31387 -0.318667,0.24586 -0.499613,0.33016 -3.729139,1.73716 7.114688,-4.13282 10.691643,-6.16496 1.011581,-0.5747 -0.815765,0.61981 -0.970648,0.72503 -36.568599,20.73451 6.391841,-3.77004 -1.562469,0.82569 -3.75068,2.16702 -7.50504,4.32767 -11.257561,6.4915 -0.224016,0.11614 -0.441542,0.24745 -0.675492,0.34274 -3.966319,-3.54162 7.005683,-7.93086 11.353758,-7.81146 1.550857,0.028 3.102035,0.031 4.653099,0.0349 2.018075,0.008 4.036151,0.0184 6.054254,0.0204 2.205521,-0.13422 4.369102,0.32561 6.550076,0.57801 2.305777,0.26728 4.582013,0.72254 6.896149,0.95317 1.246492,0.1191 2.498086,0.16113 3.749654,0.15566 0.367321,-0.004 0.734993,-0.0108 1.100834,-0.045 2.774106,-2.14982 -6.951668,5.87637 -10.711434,8.04765 -2.096954,0.20843 -4.202753,0.17347 -6.29652,0.40637 -2.917538,0.3173 -5.85659,0.75385 -8.793894,0.56558 -2.033117,-0.18097 -4.059896,-0.42211 -6.09787,-0.54333 -0.811648,-0.0547 -1.62474,-0.0467 -2.437455,-0.0407 -0.322508,0.003 -0.644942,0.011 -0.966928,0.0293 -0.165,-0.003 0.04587,0.0852 -0.188101,-0.007 -0.296278,-8.3e-4 -0.592364,-0.005 -0.888615,-0.007 -0.351164,0.008 -0.702047,-0.002 -1.053224,8.7e-4 -0.404917,-0.011 -0.810108,-0.005 -1.214973,0.006 -4.758105,0.23227 6.578532,-7.65667 10.957912,-7.56273 2.267428,0.0466 4.534896,0.0821 6.802865,0.0854 2.938891,0.005 5.877762,-0.009 8.816583,-0.0283 1.996122,-2.7e-4 3.992412,-0.01 5.988389,-0.0351 1.110313,0.25724 1.845211,-0.4684 2.852028,-0.69712 0.465677,-0.10207 0.926474,-0.23712 1.399711,-0.30176 4.425139,0.7351 -9.94773,2.88644 -10.788246,7.27649 -2.114628,0.20268 -4.254756,0.1968 -6.380171,0.2486 -2.437508,-0.0174 -4.892869,0.23638 -7.316027,-0.0706 -1.698337,-0.26907 -3.39862,-0.51943 -5.115517,-0.6273 -0.205562,-0.009 -0.413634,-0.0595 -0.616686,-0.0263 -0.153902,0.0252 -0.270256,0.17381 -0.424528,0.1966 -0.777297,0.11483 -1.764738,-0.10343 -2.555457,-0.14055 -0.656866,-0.0276 -1.314052,-0.0462 -1.971278,-0.0624 -4.329404,-0.55053 7.103829,-5.07264 10.702078,-7.54235 0.217846,0.006 0.435692,0.0123 0.653539,0.0185 0,0 -10.328098,7.50329 -10.328098,7.50329 l 0,0 c -0.234817,0.006 -0.469633,0.012 -0.70445,0.0181 23.266641,-17.30776 6.552102,-7.34082 10.156126,-7.52474 0.619051,0.054 1.239366,0.0929 1.860104,0.12118 1.216684,0.042 2.407325,-0.10857 3.614283,0.0265 1.683373,0.1785 3.346025,0.50037 5.027729,0.69286 2.398635,0.10652 4.800552,0.0174 7.200209,-0.0213 2.242814,-0.0632 4.50378,-0.28822 6.73887,-0.14556 4.276412,3.29144 -7.246616,4.77703 -10.045147,7.85177 -0.418983,0.11136 -0.841032,0.21369 -1.249471,0.36096 -0.990539,0.40724 -1.96529,0.4038 -3.027216,0.34143 -1.963759,-0.0257 -3.927854,-0.0347 -5.891765,-0.0351 -2.912858,-0.0199 -5.825767,-0.0335 -8.738697,-0.0283 -2.346317,0.003 -4.692151,0.0401 -7.037972,0.0854 -4.917645,0.0996 5.511656,-7.79126 9.860481,-7.56273 0.399598,0.0109 0.79953,0.0164 1.199197,0.006 0.35037,0.002 0.700458,-0.007 1.050809,9.2e-4 0.302443,-0.002 0.604725,-0.006 0.907186,-0.008 0.09427,-0.0552 0.09053,-0.0211 0.18797,-0.0101 0.313031,0.0126 0.626268,0.0185 0.939474,0.0253 0.803177,0.0218 1.604972,0.0984 2.404363,0.17497 1.977635,0.20207 3.947948,0.48484 5.934672,0.58481 2.904754,-0.006 5.788969,-0.3512 8.672343,-0.67735 2.06787,-0.17306 4.339383,-0.0444 6.255216,-0.92451 4.540213,-1.72642 -5.907951,9.15307 -9.775182,7.56938 -0.357316,-0.0221 -0.715341,-0.0299 -1.072934,-0.0469 -1.230415,-0.0627 -2.457183,-0.20233 -3.679919,-0.34808 -2.305522,-0.30043 -4.588509,-0.75772 -6.906661,-0.9589 -2.14149,-0.28168 -4.278768,-0.57778 -6.446628,-0.46061 -2.035256,0.002 -4.070496,0.012 -6.105738,0.0146 -1.570878,-10e-4 -3.141916,-0.007 -4.712667,0.0158 -5.763582,0.18775 8.497655,-2.11236 9.084142,-7.79635 0.193371,-0.12025 0.393041,-0.23092 0.590759,-0.34441 -35.64971,20.57687 26.457659,-15.11565 -9.154843,5.41305 0.342075,-0.1984 0.686172,-0.39398 1.027127,-0.59419 37.466674,-21.99983 -25.616058,14.74314 11.853342,-6.86838 0.554566,0.1 1.093469,0.0616 1.645829,-0.0518 0.80105,-0.1382 1.57263,-0.40223 2.352269,-0.62819 0.877731,-0.16768 1.773396,-0.0829 2.663474,-0.0698 1.079539,0.0367 2.157812,0.11061 3.238072,0.12771 1.206119,0.008 2.374602,-0.22707 3.583074,-0.15362 1.007331,0.0299 2.012424,0.11429 3.01353,0.22883 1.976957,0.24597 3.959094,0.56621 5.956362,0.52877 1.92849,-0.11108 3.8566,-0.40577 5.788069,-0.3025 1.448593,0.11089 2.771491,0.0319 4.144673,-0.47931 -3.304734,2.52778 -6.609469,5.05556 -9.914203,7.58334 -0.01633,0.002 -0.03332,0.0103 -0.049,0.005 -0.263365,-0.009 -0.526845,-0.0131 -0.790356,-0.0136 -0.486902,0.002 -0.974186,0.0155 -1.460899,-6.3e-4 -0.706004,-0.0285 -1.410261,-0.0768 -2.110513,-0.17589 -1.01457,-0.15035 -1.993614,-0.40224 -2.956674,-0.75613 -0.450056,0.14939 -0.947467,0.0318 -1.416621,0.0785 -0.485681,-0.0149 -0.971687,-0.0211 -1.45758,-0.0153 -0.782459,-0.0109 -1.564926,-6.2e-4 -2.347393,-0.009 -1.207205,-0.002 -2.414409,-0.0328 -3.621715,-0.0193 -1.340393,0.005 -2.68073,0.007 -4.021101,10e-4 -1.342338,5.1e-4 -2.684602,-0.0143 -4.026951,-0.003 -1.303623,0.003 -2.621187,0.002 -3.905809,0.24967 -1.351492,0.31693 -2.69297,0.6935 -4.07672,0.84837 -1.99682,0.27504 -3.984665,0.67605 -5.84067,1.49039 0,0 10.058571,-7.90967 10.058571,-7.90967 z"
       inkscape:connector-curvature="0" />
    <path
       style="fill:none;fill-rule:evenodd;stroke:#000000;stroke-width:1px;stroke-linecap:butt;stroke-linejoin:miter;stroke-opacity:1"
       d="M 67.241379,528.22427 83.62069,604.08634"
       id="path4166"
       inkscape:connector-curvature="0" />
    <g
       style="font-style:normal;font-weight:normal;font-size:35px;line-height:125%;font-family:sans-serif;text-align:start;letter-spacing:0px;word-spacing:0px;text-anchor:start;fill:#000000;fill-opacity:1;stroke:none;stroke-width:1px;stroke-linecap:butt;stroke-linejoin:miter;stroke-opacity:1"
       id="text4168">
      <path
         d="m 88.368042,600.70898 1.412354,-0.22216 q 0.119018,0.849 0.658569,1.30127 0.547485,0.45227 1.523437,0.45227 0.983887,0 1.459961,-0.39673 0.476074,-0.40467 0.476074,-0.94422 0,-0.484 -0.420532,-0.76171 -0.293579,-0.19043 -1.459961,-0.48401 -1.571045,-0.39673 -2.182007,-0.68238 -0.603027,-0.29358 -0.92041,-0.80139 -0.309448,-0.51575 -0.309448,-1.13464 0,-0.56336 0.253906,-1.03943 0.261841,-0.48401 0.706177,-0.80139 0.333252,-0.24597 0.904541,-0.4126 0.579224,-0.17456 1.237793,-0.17456 0.991821,0 1.737671,0.28564 0.753784,0.28565 1.11084,0.77759 0.357055,0.48401 0.491943,1.30127 l -1.396484,0.19043 q -0.09522,-0.65063 -0.55542,-1.01562 -0.452271,-0.36499 -1.2854,-0.36499 -0.983887,0 -1.404419,0.32531 -0.420533,0.32532 -0.420533,0.76172 0,0.27771 0.174561,0.49988 0.17456,0.2301 0.547485,0.38086 0.214234,0.0794 1.261597,0.36499 1.515503,0.40466 2.110596,0.6665 0.603027,0.25391 0.944213,0.74585 0.341187,0.49195 0.341187,1.22193 0,0.71411 -0.420532,1.34887 -0.412598,0.62684 -1.19812,0.97596 -0.785523,0.34118 -1.777344,0.34118 -1.642456,0 -2.507324,-0.68237 -0.856934,-0.68237 -1.094971,-2.02332 z"
         style="font-style:normal;font-variant:normal;font-weight:normal;font-stretch:normal;font-size:16.25px;font-family:arial;-inkscape-font-specification:arial;text-align:start;text-anchor:start"
         id="path4293"
         inkscape:connector-curvature="0" />
      <path
         d="m 102.83276,600.51062 1.47583,0.1825 q -0.34912,1.29333 -1.29333,2.00744 -0.94422,0.71411 -2.41211,0.71411 -1.848755,0 -2.935792,-1.13464 -1.079101,-1.14258 -1.079101,-3.19763 0,-2.12647 1.094971,-3.30078 1.09497,-1.17432 2.840572,-1.17432 1.69007,0 2.76123,1.15051 1.07117,1.15052 1.07117,3.23731 0,0.12695 -0.008,0.38086 l -6.284183,0 q 0.07935,1.38855 0.785522,2.12646 0.706177,0.73792 1.761471,0.73792 0.78553,0 1.34095,-0.4126 0.55542,-0.4126 0.88073,-1.31714 z m -4.689327,-2.30896 4.705197,0 q -0.0952,-1.06323 -0.53955,-1.59485 -0.68237,-0.82519 -1.76941,-0.82519 -0.983884,0 -1.658322,0.65857 -0.666504,0.65856 -0.737915,1.76147 z"
         style="font-style:normal;font-variant:normal;font-weight:normal;font-stretch:normal;font-size:16.25px;font-family:arial;-inkscape-font-specification:arial;text-align:start;text-anchor:start"
         id="path4295"
         inkscape:connector-curvature="0" />
      <path
         d="m 106.10974,603.22424 0,-8.42651 1.2854,0 0,1.19812 q 0.92835,-1.38855 2.68189,-1.38855 0.76172,0 1.39648,0.27771 0.6427,0.26978 0.96008,0.71411 0.31739,0.44434 0.44434,1.0553 0.0793,0.39673 0.0793,1.38855 l 0,5.18127 -1.42823,0 0,-5.12573 q 0,-0.8728 -0.16662,-1.30127 -0.16663,-0.4364 -0.5951,-0.69031 -0.42053,-0.26184 -0.99182,-0.26184 -0.91247,0 -1.57898,0.57923 -0.65857,0.57922 -0.65857,2.19787 l 0,4.60205 -1.42822,0 z"
         style="font-style:normal;font-variant:normal;font-weight:normal;font-stretch:normal;font-size:16.25px;font-family:arial;-inkscape-font-specification:arial;text-align:start;text-anchor:start"
         id="path4297"
         inkscape:connector-curvature="0" />
      <path
         d="m 114.58386,600.70898 1.41236,-0.22216 q 0.11901,0.849 0.65857,1.30127 0.54748,0.45227 1.52343,0.45227 0.98389,0 1.45996,-0.39673 0.47608,-0.40467 0.47608,-0.94422 0,-0.484 -0.42053,-0.76171 -0.29358,-0.19043 -1.45997,-0.48401 -1.57104,-0.39673 -2.182,-0.68238 -0.60303,-0.29358 -0.92041,-0.80139 -0.30945,-0.51575 -0.30945,-1.13464 0,-0.56336 0.25391,-1.03943 0.26184,-0.48401 0.70617,-0.80139 0.33325,-0.24597 0.90454,-0.4126 0.57923,-0.17456 1.2378,-0.17456 0.99182,0 1.73767,0.28564 0.75378,0.28565 1.11084,0.77759 0.35705,0.48401 0.49194,1.30127 l -1.39648,0.19043 q -0.0952,-0.65063 -0.55542,-1.01562 -0.45227,-0.36499 -1.2854,-0.36499 -0.98389,0 -1.40442,0.32531 -0.42054,0.32532 -0.42054,0.76172 0,0.27771 0.17457,0.49988 0.17456,0.2301 0.54748,0.38086 0.21423,0.0794 1.2616,0.36499 1.5155,0.40466 2.11059,0.6665 0.60303,0.25391 0.94422,0.74585 0.34118,0.49195 0.34118,1.22193 0,0.71411 -0.42053,1.34887 -0.4126,0.62684 -1.19812,0.97596 -0.78552,0.34118 -1.77734,0.34118 -1.64246,0 -2.50733,-0.68237 -0.85693,-0.68237 -1.09497,-2.02332 z"
         style="font-style:normal;font-variant:normal;font-weight:normal;font-stretch:normal;font-size:16.25px;font-family:arial;-inkscape-font-specification:arial;text-align:start;text-anchor:start"
         id="path4299"
         inkscape:connector-curvature="0" />
      <path
         d="m 122.74854,599.01099 q 0,-2.3407 1.30126,-3.46741 1.08704,-0.93628 2.65015,-0.93628 1.73767,0 2.84058,1.14258 1.1029,1.13464 1.1029,3.14209 0,1.62658 -0.49194,2.56286 -0.48401,0.92835 -1.42029,1.4441 -0.92834,0.51574 -2.03125,0.51574 -1.76941,0 -2.86438,-1.13464 -1.08703,-1.13464 -1.08703,-3.26904 z m 1.46789,0 q 0,1.61865 0.70618,2.42797 0.70617,0.8014 1.77734,0.8014 1.06323,0 1.76941,-0.80933 0.70618,-0.80933 0.70618,-2.46765 0,-1.56311 -0.71411,-2.3645 -0.70618,-0.80933 -1.76148,-0.80933 -1.07117,0 -1.77734,0.80139 -0.70618,0.80139 -0.70618,2.42005 z"
         style="font-style:normal;font-variant:normal;font-weight:normal;font-stretch:normal;font-size:16.25px;font-family:arial;-inkscape-font-specification:arial;text-align:start;text-anchor:start"
         id="path4301"
         inkscape:connector-curvature="0" />
      <path
         d="m 132.30969,603.22424 0,-8.42651 1.2854,0 0,1.27747 q 0.49195,-0.89661 0.90454,-1.18226 0.42054,-0.28564 0.92041,-0.28564 0.72205,0 1.4679,0.4602 l -0.49194,1.32508 q -0.52369,-0.30945 -1.04737,-0.30945 -0.46814,0 -0.84106,0.28564 -0.37293,0.27771 -0.53162,0.77759 -0.23803,0.76172 -0.23803,1.66626 l 0,4.41162 -1.42823,0 z"
         style="font-style:normal;font-variant:normal;font-weight:normal;font-stretch:normal;font-size:16.25px;font-family:arial;-inkscape-font-specification:arial;text-align:start;text-anchor:start"
         id="path4303"
         inkscape:connector-curvature="0" />
      <path
         d="m 144.5686,603.22424 -3.20556,-8.42651 1.50757,0 1.80908,5.04639 q 0.29358,0.81726 0.53955,1.69799 0.19043,-0.6665 0.53161,-1.60278 l 1.87256,-5.1416 1.4679,0 -3.1897,8.42651 -1.33301,0 z"
         style="font-style:normal;font-variant:normal;font-weight:normal;font-stretch:normal;font-size:16.25px;font-family:arial;-inkscape-font-specification:arial;text-align:start;text-anchor:start"
         id="path4305"
         inkscape:connector-curvature="0" />
      <path
         d="m 155.85156,602.18481 q -0.79345,0.67444 -1.53137,0.95215 -0.72998,0.27771 -1.57104,0.27771 -1.38855,0 -2.1344,-0.67444 -0.74585,-0.68237 -0.74585,-1.73767 0,-0.61889 0.27771,-1.12671 0.28564,-0.51574 0.73791,-0.82519 0.46021,-0.30945 1.0315,-0.46814 0.42053,-0.11108 1.26953,-0.21423 1.72973,-0.2063 2.54699,-0.49195 0.008,-0.29358 0.008,-0.37292 0,-0.8728 -0.40466,-1.22986 -0.54749,-0.48401 -1.62659,-0.48401 -1.00769,0 -1.4917,0.35706 -0.47607,0.34912 -0.70618,1.24572 l -1.39648,-0.19043 q 0.19043,-0.8966 0.62683,-1.44409 0.4364,-0.55542 1.2616,-0.849 0.82519,-0.30151 1.91223,-0.30151 1.0791,0 1.75354,0.25391 0.67444,0.2539 0.99182,0.6427 0.31738,0.38086 0.44433,0.96801 0.0714,0.36499 0.0714,1.31714 l 0,1.9043 q 0,1.99158 0.0873,2.52319 0.0952,0.52368 0.36499,1.00769 l -1.4917,0 q -0.22217,-0.44433 -0.28565,-1.03943 z m -0.11902,-3.18969 q -0.77758,0.31738 -2.33276,0.53955 -0.88074,0.12695 -1.24573,0.28564 -0.36499,0.15869 -0.56335,0.46814 -0.19837,0.30152 -0.19837,0.67444 0,0.57129 0.42847,0.95215 0.4364,0.38086 1.26953,0.38086 0.8252,0 1.4679,-0.35706 0.6427,-0.36499 0.94421,-0.99182 0.2301,-0.48401 0.2301,-1.42822 l 0,-0.52368 z"
         style="font-style:normal;font-variant:normal;font-weight:normal;font-stretch:normal;font-size:16.25px;font-family:arial;-inkscape-font-specification:arial;text-align:start;text-anchor:start"
         id="path4307"
         inkscape:connector-curvature="0" />
      <path
         d="m 159.33484,603.22424 0,-11.63208 1.42822,0 0,11.63208 -1.42822,0 z"
         style="font-style:normal;font-variant:normal;font-weight:normal;font-stretch:normal;font-size:16.25px;font-family:arial;-inkscape-font-specification:arial;text-align:start;text-anchor:start"
         id="path4309"
         inkscape:connector-curvature="0" />
      <path
         d="m 168.5072,603.22424 0,-1.23779 q -0.98388,1.42822 -2.67395,1.42822 -0.74585,0 -1.39648,-0.28564 -0.6427,-0.28565 -0.96009,-0.71411 -0.30944,-0.4364 -0.4364,-1.06324 -0.0873,-0.42053 -0.0873,-1.333 l 0,-5.22095 1.42823,0 0,4.67346 q 0,1.11878 0.0873,1.50757 0.13488,0.56335 0.57128,0.88867 0.43641,0.31738 1.07911,0.31738 0.6427,0 1.20605,-0.32531 0.56336,-0.33325 0.79346,-0.89661 0.23804,-0.57129 0.23804,-1.65039 l 0,-4.51477 1.42822,0 0,8.42651 -1.27747,0 z"
         style="font-style:normal;font-variant:normal;font-weight:normal;font-stretch:normal;font-size:16.25px;font-family:arial;-inkscape-font-specification:arial;text-align:start;text-anchor:start"
         id="path4311"
         inkscape:connector-curvature="0" />
      <path
         d="m 177.79858,600.51062 1.47583,0.1825 q -0.34912,1.29333 -1.29333,2.00744 -0.94421,0.71411 -2.41211,0.71411 -1.84876,0 -2.93579,-1.13464 -1.0791,-1.14258 -1.0791,-3.19763 0,-2.12647 1.09497,-3.30078 1.09497,-1.17432 2.84057,-1.17432 1.69007,0 2.76123,1.15051 1.07117,1.15052 1.07117,3.23731 0,0.12695 -0.008,0.38086 l -6.28418,0 q 0.0793,1.38855 0.78552,2.12646 0.70618,0.73792 1.76147,0.73792 0.78553,0 1.34095,-0.4126 0.55542,-0.4126 0.88073,-1.31714 z m -4.68933,-2.30896 4.7052,0 q -0.0952,-1.06323 -0.53955,-1.59485 -0.68237,-0.82519 -1.76941,-0.82519 -0.98388,0 -1.65832,0.65857 -0.66651,0.65856 -0.73792,1.76147 z"
         style="font-style:normal;font-variant:normal;font-weight:normal;font-stretch:normal;font-size:16.25px;font-family:arial;-inkscape-font-specification:arial;text-align:start;text-anchor:start"
         id="path4313"
         inkscape:connector-curvature="0" />
      <path
         d="m 191.35083,600.51062 1.47583,0.1825 q -0.34912,1.29333 -1.29333,2.00744 -0.94422,0.71411 -2.41211,0.71411 -1.84876,0 -2.9358,-1.13464 -1.0791,-1.14258 -1.0791,-3.19763 0,-2.12647 1.09497,-3.30078 1.09497,-1.17432 2.84058,-1.17432 1.69006,0 2.76123,1.15051 1.07117,1.15052 1.07117,3.23731 0,0.12695 -0.008,0.38086 l -6.28418,0 q 0.0793,1.38855 0.78553,2.12646 0.70617,0.73792 1.76147,0.73792 0.78552,0 1.34094,-0.4126 0.55542,-0.4126 0.88074,-1.31714 z m -4.68933,-2.30896 4.7052,0 q -0.0952,-1.06323 -0.53955,-1.59485 -0.68237,-0.82519 -1.76941,-0.82519 -0.98389,0 -1.65833,0.65857 -0.6665,0.65856 -0.73791,1.76147 z"
         style="font-style:normal;font-variant:normal;font-weight:normal;font-stretch:normal;font-size:16.25px;font-family:arial;-inkscape-font-specification:arial;text-align:start;text-anchor:start"
         id="path4315"
         inkscape:connector-curvature="0" />
      <path
         d="m 194.63574,593.23462 0,-1.64246 1.42822,0 0,1.64246 -1.42822,0 z m 0,9.98962 0,-8.42651 1.42822,0 0,8.42651 -1.42822,0 z"
         style="font-style:normal;font-variant:normal;font-weight:normal;font-stretch:normal;font-size:16.25px;font-family:arial;-inkscape-font-specification:arial;text-align:start;text-anchor:start"
         id="path4317"
         inkscape:connector-curvature="0" />
      <path
         d="m 201.36426,601.94678 0.2063,1.26159 q -0.60303,0.12696 -1.0791,0.12696 -0.77759,0 -1.20606,-0.24597 -0.42847,-0.24598 -0.60303,-0.6427 -0.17456,-0.40467 -0.17456,-1.69007 l 0,-4.84802 -1.04736,0 0,-1.11084 1.04736,0 0,-2.08679 1.42029,-0.85694 0,2.94373 1.43616,0 0,1.11084 -1.43616,0 0,4.92737 q 0,0.61096 0.0714,0.78552 0.0794,0.17456 0.24597,0.27771 0.17456,0.10315 0.49195,0.10315 0.23803,0 0.62683,-0.0555 z"
         style="font-style:normal;font-variant:normal;font-weight:normal;font-stretch:normal;font-size:16.25px;font-family:arial;-inkscape-font-specification:arial;text-align:start;text-anchor:start"
         id="path4319"
         inkscape:connector-curvature="0" />
      <path
         d="m 202.75281,603.22424 0,-11.63208 1.42822,0 0,4.17359 q 0.99976,-1.15845 2.52319,-1.15845 0.93628,0 1.62659,0.37292 0.69031,0.36499 0.98389,1.01563 0.30151,0.65063 0.30151,1.88843 l 0,5.33996 -1.42822,0 0,-5.33996 q 0,-1.07117 -0.46814,-1.55518 -0.46021,-0.49194 -1.30921,-0.49194 -0.63476,0 -1.19812,0.33325 -0.55542,0.32532 -0.79345,0.88867 -0.23804,0.56336 -0.23804,1.55518 l 0,4.60998 -1.42822,0 z"
         style="font-style:normal;font-variant:normal;font-weight:normal;font-stretch:normal;font-size:16.25px;font-family:arial;-inkscape-font-specification:arial;text-align:start;text-anchor:start"
         id="path4321"
         inkscape:connector-curvature="0" />
      <path
         d="m 217.56665,600.51062 1.47583,0.1825 q -0.34912,1.29333 -1.29333,2.00744 -0.94422,0.71411 -2.41211,0.71411 -1.84876,0 -2.93579,-1.13464 -1.07911,-1.14258 -1.07911,-3.19763 0,-2.12647 1.09497,-3.30078 1.09497,-1.17432 2.84058,-1.17432 1.69006,0 2.76123,1.15051 1.07117,1.15052 1.07117,3.23731 0,0.12695 -0.008,0.38086 l -6.28418,0 q 0.0794,1.38855 0.78553,2.12646 0.70617,0.73792 1.76147,0.73792 0.78552,0 1.34094,-0.4126 0.55542,-0.4126 0.88074,-1.31714 z m -4.68933,-2.30896 4.7052,0 q -0.0952,-1.06323 -0.53955,-1.59485 -0.68237,-0.82519 -1.76941,-0.82519 -0.98389,0 -1.65833,0.65857 -0.6665,0.65856 -0.73791,1.76147 z"
         style="font-style:normal;font-variant:normal;font-weight:normal;font-stretch:normal;font-size:16.25px;font-family:arial;-inkscape-font-specification:arial;text-align:start;text-anchor:start"
         id="path4323"
         inkscape:connector-curvature="0" />
      <path
         d="m 220.82776,603.22424 0,-8.42651 1.2854,0 0,1.27747 q 0.49194,-0.89661 0.90454,-1.18226 0.42053,-0.28564 0.92041,-0.28564 0.72205,0 1.4679,0.4602 l -0.49195,1.32508 q -0.52368,-0.30945 -1.04736,-0.30945 -0.46814,0 -0.84107,0.28564 -0.37292,0.27771 -0.53161,0.77759 -0.23804,0.76172 -0.23804,1.66626 l 0,4.41162 -1.42822,0 z"
         style="font-style:normal;font-variant:normal;font-weight:normal;font-stretch:normal;font-size:16.25px;font-family:arial;-inkscape-font-specification:arial;text-align:start;text-anchor:start"
         id="path4325"
         inkscape:connector-curvature="0" />
      <path
         d="m 230.34924,597.48755 q 0,-2.06299 0.42054,-3.31665 0.42846,-1.2616 1.26159,-1.94397 0.84107,-0.68237 2.1106,-0.68237 0.93628,0 1.64245,0.38086 0.70618,0.37292 1.16639,1.08703 0.4602,0.70618 0.72204,1.72974 0.26184,1.01562 0.26184,2.74536 0,2.04712 -0.42053,3.30871 -0.42053,1.25367 -1.2616,1.94397 -0.83313,0.68238 -2.11059,0.68238 -1.68213,0 -2.64221,-1.20606 -1.15052,-1.45202 -1.15052,-4.729 z m 1.4679,0 q 0,2.86438 0.6665,3.81653 0.67444,0.94421 1.65833,0.94421 0.98388,0 1.65039,-0.95215 0.67444,-0.95215 0.67444,-3.80859 0,-2.87232 -0.67444,-3.81653 -0.66651,-0.94421 -1.66626,-0.94421 -0.98389,0 -1.57105,0.83313 -0.73791,1.06323 -0.73791,3.92761 z"
         style="font-style:normal;font-variant:normal;font-weight:normal;font-stretch:normal;font-size:16.25px;font-family:arial;-inkscape-font-specification:arial;text-align:start;text-anchor:start"
         id="path4327"
         inkscape:connector-curvature="0" />
      <path
         d="m 243.7666,599.01099 q 0,-2.3407 1.30127,-3.46741 1.08704,-0.93628 2.65015,-0.93628 1.73767,0 2.84057,1.14258 1.10291,1.13464 1.10291,3.14209 0,1.62658 -0.49194,2.56286 -0.48401,0.92835 -1.42029,1.4441 -0.92835,0.51574 -2.03125,0.51574 -1.76941,0 -2.86438,-1.13464 -1.08704,-1.13464 -1.08704,-3.26904 z m 1.4679,0 q 0,1.61865 0.70617,2.42797 0.70618,0.8014 1.77735,0.8014 1.06323,0 1.76941,-0.80933 0.70617,-0.80933 0.70617,-2.46765 0,-1.56311 -0.71411,-2.3645 -0.70617,-0.80933 -1.76147,-0.80933 -1.07117,0 -1.77735,0.80139 -0.70617,0.80139 -0.70617,2.42005 z"
         style="font-style:normal;font-variant:normal;font-weight:normal;font-stretch:normal;font-size:16.25px;font-family:arial;-inkscape-font-specification:arial;text-align:start;text-anchor:start"
         id="path4329"
         inkscape:connector-curvature="0" />
      <path
         d="m 253.32776,603.22424 0,-8.42651 1.2854,0 0,1.27747 q 0.49194,-0.89661 0.90454,-1.18226 0.42053,-0.28564 0.92041,-0.28564 0.72205,0 1.4679,0.4602 l -0.49195,1.32508 q -0.52368,-0.30945 -1.04736,-0.30945 -0.46814,0 -0.84107,0.28564 -0.37292,0.27771 -0.53161,0.77759 -0.23804,0.76172 -0.23804,1.66626 l 0,4.41162 -1.42822,0 z"
         style="font-style:normal;font-variant:normal;font-weight:normal;font-stretch:normal;font-size:16.25px;font-family:arial;-inkscape-font-specification:arial;text-align:start;text-anchor:start"
         id="path4331"
         inkscape:connector-curvature="0" />
      <path
         d="m 268.22888,603.22424 -1.42822,0 0,-9.10095 q -0.51575,0.49194 -1.35681,0.98389 -0.83313,0.49194 -1.49964,0.73791 l 0,-1.38061 q 1.19812,-0.56336 2.09473,-1.36475 0.89661,-0.80139 1.26953,-1.55517 l 0.92041,0 0,11.67968 z"
         style="font-style:normal;font-variant:normal;font-weight:normal;font-stretch:normal;font-size:16.25px;font-family:arial;-inkscape-font-specification:arial;text-align:start;text-anchor:start"
         id="path4333"
         inkscape:connector-curvature="0" />
      <path
         d="m 94.437988,622.49731 q -0.793457,0.67444 -1.531372,0.95215 -0.72998,0.27771 -1.571045,0.27771 -1.38855,0 -2.134399,-0.67444 -0.74585,-0.68237 -0.74585,-1.73767 0,-0.61889 0.27771,-1.12671 0.285645,-0.51574 0.737915,-0.82519 0.460205,-0.30945 1.031494,-0.46814 0.420533,-0.11108 1.269532,-0.21423 1.729736,-0.2063 2.546997,-0.49195 0.0079,-0.29358 0.0079,-0.37292 0,-0.8728 -0.404663,-1.22986 -0.547485,-0.48401 -1.626587,-0.48401 -1.00769,0 -1.491699,0.35706 -0.476074,0.34912 -0.706177,1.24572 L 88.70126,617.5144 q 0.19043,-0.8966 0.626831,-1.44409 0.436401,-0.55542 1.261597,-0.849 0.825195,-0.30151 1.912231,-0.30151 1.079102,0 1.75354,0.25391 0.674439,0.2539 0.991821,0.6427 0.317383,0.38086 0.444336,0.96801 0.07141,0.36499 0.07141,1.31714 l 0,1.9043 q 0,1.99158 0.08728,2.52319 0.09521,0.52368 0.36499,1.00769 l -1.491699,0 q -0.222168,-0.44433 -0.285645,-1.03943 z m -0.119018,-3.18969 q -0.777588,0.31738 -2.332764,0.53955 -0.880737,0.12695 -1.245727,0.28564 -0.364991,0.15869 -0.563355,0.46814 -0.198364,0.30152 -0.198364,0.67444 0,0.57129 0.428467,0.95215 0.436401,0.38086 1.269531,0.38086 0.825195,0 1.467895,-0.35706 0.642701,-0.36499 0.944214,-0.99182 0.230103,-0.48401 0.230103,-1.42822 l 0,-0.52368 z"
         style="font-style:normal;font-variant:normal;font-weight:normal;font-stretch:normal;font-size:16.25px;font-family:arial;-inkscape-font-specification:arial;text-align:start;text-anchor:start"
         id="path4335"
         inkscape:connector-curvature="0" />
      <path
         d="m 101.07129,622.25928 0.2063,1.26159 q -0.60303,0.12696 -1.0791,0.12696 -0.777592,0 -1.206058,-0.24597 -0.428467,-0.24598 -0.603028,-0.6427 -0.17456,-0.40467 -0.17456,-1.69007 l 0,-4.84802 -1.047364,0 0,-1.11084 1.047364,0 0,-2.08679 1.420288,-0.85694 0,2.94373 1.436158,0 0,1.11084 -1.436158,0 0,4.92737 q 0,0.61096 0.07141,0.78552 0.07935,0.17456 0.245972,0.27771 0.174566,0.10315 0.491946,0.10315 0.23804,0 0.62683,-0.0555 z"
         style="font-style:normal;font-variant:normal;font-weight:normal;font-stretch:normal;font-size:16.25px;font-family:arial;-inkscape-font-specification:arial;text-align:start;text-anchor:start"
         id="path4337"
         inkscape:connector-curvature="0" />
      <path
         d="m 112.46533,622.49731 q -0.79345,0.67444 -1.53137,0.95215 -0.72998,0.27771 -1.57104,0.27771 -1.38855,0 -2.1344,-0.67444 -0.74585,-0.68237 -0.74585,-1.73767 0,-0.61889 0.27771,-1.12671 0.28564,-0.51574 0.73791,-0.82519 0.46021,-0.30945 1.0315,-0.46814 0.42053,-0.11108 1.26953,-0.21423 1.72973,-0.2063 2.54699,-0.49195 0.008,-0.29358 0.008,-0.37292 0,-0.8728 -0.40467,-1.22986 -0.54748,-0.48401 -1.62658,-0.48401 -1.00769,0 -1.4917,0.35706 -0.47608,0.34912 -0.70618,1.24572 l -1.39648,-0.19043 q 0.19043,-0.8966 0.62683,-1.44409 0.4364,-0.55542 1.2616,-0.849 0.82519,-0.30151 1.91223,-0.30151 1.0791,0 1.75354,0.25391 0.67444,0.2539 0.99182,0.6427 0.31738,0.38086 0.44433,0.96801 0.0714,0.36499 0.0714,1.31714 l 0,1.9043 q 0,1.99158 0.0873,2.52319 0.0952,0.52368 0.36499,1.00769 l -1.4917,0 q -0.22217,-0.44433 -0.28565,-1.03943 z m -0.11902,-3.18969 q -0.77758,0.31738 -2.33276,0.53955 -0.88074,0.12695 -1.24573,0.28564 -0.36499,0.15869 -0.56335,0.46814 -0.19837,0.30152 -0.19837,0.67444 0,0.57129 0.42847,0.95215 0.4364,0.38086 1.26953,0.38086 0.8252,0 1.4679,-0.35706 0.6427,-0.36499 0.94421,-0.99182 0.2301,-0.48401 0.2301,-1.42822 l 0,-0.52368 z"
         style="font-style:normal;font-variant:normal;font-weight:normal;font-stretch:normal;font-size:16.25px;font-family:arial;-inkscape-font-specification:arial;text-align:start;text-anchor:start"
         id="path4339"
         inkscape:connector-curvature="0" />
      <path
         d="m 121.50281,623.53674 0,-1.23779 q -0.98389,1.42822 -2.67395,1.42822 -0.74585,0 -1.39649,-0.28564 -0.6427,-0.28565 -0.96008,-0.71411 -0.30945,-0.4364 -0.4364,-1.06324 -0.0873,-0.42053 -0.0873,-1.333 l 0,-5.22095 1.42822,0 0,4.67346 q 0,1.11878 0.0873,1.50757 0.13489,0.56335 0.57129,0.88867 0.4364,0.31738 1.0791,0.31738 0.6427,0 1.20606,-0.32531 0.56335,-0.33325 0.79345,-0.89661 0.23804,-0.57129 0.23804,-1.65039 l 0,-4.51477 1.42822,0 0,8.42651 -1.27746,0 z"
         style="font-style:normal;font-variant:normal;font-weight:normal;font-stretch:normal;font-size:16.25px;font-family:arial;-inkscape-font-specification:arial;text-align:start;text-anchor:start"
         id="path4341"
         inkscape:connector-curvature="0" />
      <path
         d="m 130.49268,623.53674 0,-1.06323 q -0.8014,1.25366 -2.35657,1.25366 -1.00769,0 -1.85669,-0.55542 -0.84107,-0.55542 -1.30921,-1.54724 -0.4602,-0.99975 -0.4602,-2.29309 0,-1.2616 0.42053,-2.28516 0.42053,-1.03149 1.2616,-1.57897 0.84106,-0.54749 1.88049,-0.54749 0.76172,0 1.35681,0.32532 0.5951,0.31738 0.96802,0.83313 l 0,-4.17359 1.42029,0 0,11.63208 -1.32507,0 z m -4.51477,-4.20532 q 0,1.61865 0.68237,2.42004 0.68237,0.8014 1.61072,0.8014 0.93628,0 1.58691,-0.76172 0.65857,-0.76966 0.65857,-2.3407 0,-1.72974 -0.6665,-2.53906 -0.66651,-0.80933 -1.64246,-0.80933 -0.95215,0 -1.59485,0.77759 -0.63476,0.77759 -0.63476,2.45178 z"
         style="font-style:normal;font-variant:normal;font-weight:normal;font-stretch:normal;font-size:16.25px;font-family:arial;-inkscape-font-specification:arial;text-align:start;text-anchor:start"
         id="path4343"
         inkscape:connector-curvature="0" />
      <path
         d="m 134.04736,613.54712 0,-1.64246 1.42823,0 0,1.64246 -1.42823,0 z m 0,9.98962 0,-8.42651 1.42823,0 0,8.42651 -1.42823,0 z"
         style="font-style:normal;font-variant:normal;font-weight:normal;font-stretch:normal;font-size:16.25px;font-family:arial;-inkscape-font-specification:arial;text-align:start;text-anchor:start"
         id="path4345"
         inkscape:connector-curvature="0" />
      <path
         d="m 137.12598,619.32349 q 0,-2.3407 1.30127,-3.46741 1.08703,-0.93628 2.65014,-0.93628 1.73767,0 2.84058,1.14258 1.1029,1.13464 1.1029,3.14209 0,1.62658 -0.49194,2.56286 -0.48401,0.92835 -1.42029,1.4441 -0.92834,0.51574 -2.03125,0.51574 -1.76941,0 -2.86438,-1.13464 -1.08703,-1.13464 -1.08703,-3.26904 z m 1.46789,0 q 0,1.61865 0.70618,2.42797 0.70618,0.8014 1.77734,0.8014 1.06323,0 1.76941,-0.80933 0.70618,-0.80933 0.70618,-2.46765 0,-1.56311 -0.71411,-2.3645 -0.70618,-0.80933 -1.76148,-0.80933 -1.07116,0 -1.77734,0.80139 -0.70618,0.80139 -0.70618,2.42005 z"
         style="font-style:normal;font-variant:normal;font-weight:normal;font-stretch:normal;font-size:16.25px;font-family:arial;-inkscape-font-specification:arial;text-align:start;text-anchor:start"
         id="path4347"
         inkscape:connector-curvature="0" />
      <path
         d="m 151.19397,623.53674 0,-8.42651 1.2854,0 0,1.27747 q 0.49194,-0.89661 0.90454,-1.18226 0.42053,-0.28564 0.92041,-0.28564 0.72205,0 1.4679,0.4602 l -0.49195,1.32508 q -0.52368,-0.30945 -1.04736,-0.30945 -0.46814,0 -0.84106,0.28564 -0.37293,0.27771 -0.53162,0.77759 -0.23804,0.76172 -0.23804,1.66626 l 0,4.41162 -1.42822,0 z"
         style="font-style:normal;font-variant:normal;font-weight:normal;font-stretch:normal;font-size:16.25px;font-family:arial;-inkscape-font-specification:arial;text-align:start;text-anchor:start"
         id="path4349"
         inkscape:connector-curvature="0" />
      <path
         d="m 162.104,622.49731 q -0.79345,0.67444 -1.53137,0.95215 -0.72998,0.27771 -1.57104,0.27771 -1.38855,0 -2.1344,-0.67444 -0.74585,-0.68237 -0.74585,-1.73767 0,-0.61889 0.27771,-1.12671 0.28564,-0.51574 0.73791,-0.82519 0.46021,-0.30945 1.0315,-0.46814 0.42053,-0.11108 1.26953,-0.21423 1.72973,-0.2063 2.547,-0.49195 0.008,-0.29358 0.008,-0.37292 0,-0.8728 -0.40466,-1.22986 -0.54749,-0.48401 -1.62659,-0.48401 -1.00769,0 -1.4917,0.35706 -0.47607,0.34912 -0.70618,1.24572 l -1.39648,-0.19043 q 0.19043,-0.8966 0.62683,-1.44409 0.4364,-0.55542 1.2616,-0.849 0.82519,-0.30151 1.91223,-0.30151 1.0791,0 1.75354,0.25391 0.67444,0.2539 0.99182,0.6427 0.31738,0.38086 0.44434,0.96801 0.0714,0.36499 0.0714,1.31714 l 0,1.9043 q 0,1.99158 0.0873,2.52319 0.0952,0.52368 0.36499,1.00769 l -1.4917,0 q -0.22217,-0.44433 -0.28565,-1.03943 z m -0.11901,-3.18969 q -0.77759,0.31738 -2.33277,0.53955 -0.88074,0.12695 -1.24573,0.28564 -0.36499,0.15869 -0.56335,0.46814 -0.19836,0.30152 -0.19836,0.67444 0,0.57129 0.42846,0.95215 0.4364,0.38086 1.26953,0.38086 0.8252,0 1.4679,-0.35706 0.6427,-0.36499 0.94421,-0.99182 0.23011,-0.48401 0.23011,-1.42822 l 0,-0.52368 z"
         style="font-style:normal;font-variant:normal;font-weight:normal;font-stretch:normal;font-size:16.25px;font-family:arial;-inkscape-font-specification:arial;text-align:start;text-anchor:start"
         id="path4351"
         inkscape:connector-curvature="0" />
      <path
         d="m 168.7373,622.25928 0.2063,1.26159 q -0.60302,0.12696 -1.0791,0.12696 -0.77759,0 -1.20605,-0.24597 -0.42847,-0.24598 -0.60303,-0.6427 -0.17456,-0.40467 -0.17456,-1.69007 l 0,-4.84802 -1.04736,0 0,-1.11084 1.04736,0 0,-2.08679 1.42029,-0.85694 0,2.94373 1.43615,0 0,1.11084 -1.43615,0 0,4.92737 q 0,0.61096 0.0714,0.78552 0.0793,0.17456 0.24597,0.27771 0.17456,0.10315 0.49194,0.10315 0.23804,0 0.62683,-0.0555 z"
         style="font-style:normal;font-variant:normal;font-weight:normal;font-stretch:normal;font-size:16.25px;font-family:arial;-inkscape-font-specification:arial;text-align:start;text-anchor:start"
         id="path4353"
         inkscape:connector-curvature="0" />
      <path
         d="m 175.89429,620.82312 1.47583,0.1825 q -0.34912,1.29333 -1.29334,2.00744 -0.94421,0.71411 -2.41211,0.71411 -1.84875,0 -2.93579,-1.13464 -1.0791,-1.14258 -1.0791,-3.19763 0,-2.12647 1.09497,-3.30078 1.09497,-1.17432 2.84058,-1.17432 1.69006,0 2.76123,1.15051 1.07116,1.15052 1.07116,3.23731 0,0.12695 -0.008,0.38086 l -6.28418,0 q 0.0794,1.38855 0.78552,2.12646 0.70618,0.73792 1.76148,0.73792 0.78552,0 1.34094,-0.4126 0.55542,-0.4126 0.88074,-1.31714 z m -4.68933,-2.30896 4.7052,0 q -0.0952,-1.06323 -0.53955,-1.59485 -0.68238,-0.82519 -1.76941,-0.82519 -0.98389,0 -1.65833,0.65857 -0.6665,0.65856 -0.73791,1.76147 z"
         style="font-style:normal;font-variant:normal;font-weight:normal;font-stretch:normal;font-size:16.25px;font-family:arial;-inkscape-font-specification:arial;text-align:start;text-anchor:start"
         id="path4355"
         inkscape:connector-curvature="0" />
    </g>
    <path
       inkscape:connector-curvature="0"
       id="path5260"
       d="m 267.24138,391.1553 -11.2069,77.58621"
       style="fill:none;fill-rule:evenodd;stroke:#000000;stroke-width:1px;stroke-linecap:butt;stroke-linejoin:miter;stroke-opacity:1"
       sodipodi:nodetypes="cc" />
    <text
       xml:space="preserve"
       style="font-style:normal;font-weight:normal;font-size:35px;line-height:125%;font-family:sans-serif;text-align:start;letter-spacing:0px;word-spacing:0px;text-anchor:start;fill:#000000;fill-opacity:1;stroke:none;stroke-width:1px;stroke-linecap:butt;stroke-linejoin:miter;stroke-opacity:1"
       x="271.00192"
       y="384.16705"
       id="text5328"
       sodipodi:linespacing="125%"><tspan
         sodipodi:role="line"
         id="tspan5330"
         x="271.00192"
         y="384.16705"
         style="font-style:normal;font-variant:normal;font-weight:normal;font-stretch:normal;font-size:15px;font-family:arial;-inkscape-font-specification:arial;text-align:start;text-anchor:start">the number can be from 0 to 15 </tspan><tspan
         sodipodi:role="line"
         x="271.00192"
         y="402.91705"
         style="font-style:normal;font-variant:normal;font-weight:normal;font-stretch:normal;font-size:15px;font-family:arial;-inkscape-font-specification:arial;text-align:start;text-anchor:start"
         id="tspan5332">to indicate which digital pin</tspan></text>
  </g>
</svg>
