<?xml version="1.0" encoding="UTF-8" standalone="no"?>
<!-- Created with Inkscape (http://www.inkscape.org/) -->

<svg
   xmlns:dc="http://purl.org/dc/elements/1.1/"
   xmlns:cc="http://creativecommons.org/ns#"
   xmlns:rdf="http://www.w3.org/1999/02/22-rdf-syntax-ns#"
   xmlns:svg="http://www.w3.org/2000/svg"
   xmlns="http://www.w3.org/2000/svg"
   xmlns:sodipodi="http://sodipodi.sourceforge.net/DTD/sodipodi-0.dtd"
   xmlns:inkscape="http://www.inkscape.org/namespaces/inkscape"
   width="146.79839mm"
   height="83.313156mm"
   viewBox="0 0 520.15177 295.2041"
   id="svg2"
   version="1.1"
   inkscape:version="0.91 r13725"
   sodipodi:docname="threshold.svg">
  <defs
     id="defs4" />
  <sodipodi:namedview
     id="base"
     pagecolor="#ffffff"
     bordercolor="#666666"
     borderopacity="1.0"
     inkscape:pageopacity="0.0"
     inkscape:pageshadow="2"
     inkscape:zoom="1.16"
     inkscape:cx="235.3577"
     inkscape:cy="164.87384"
     inkscape:document-units="px"
     inkscape:current-layer="layer1"
     showgrid="false"
     fit-margin-top="1"
     fit-margin-right="1"
     fit-margin-bottom="1"
     fit-margin-left="1"
     inkscape:window-width="1280"
     inkscape:window-height="756"
     inkscape:window-x="50"
     inkscape:window-y="7"
     inkscape:window-maximized="0" />
  <metadata
     id="metadata7">
    <rdf:RDF>
      <cc:Work
         rdf:about="">
        <dc:format>image/svg+xml</dc:format>
        <dc:type
           rdf:resource="http://purl.org/dc/dcmitype/StillImage" />
        <dc:title></dc:title>
      </cc:Work>
    </rdf:RDF>
  </metadata>
  <g
     inkscape:label="Layer 1"
     inkscape:groupmode="layer"
     id="layer1"
     transform="translate(0.20822956,-367.50308)">
    <text
       xml:space="preserve"
       style="font-style:normal;font-weight:normal;font-size:35px;line-height:125%;font-family:sans-serif;text-align:center;letter-spacing:0px;word-spacing:0px;text-anchor:middle;fill:#000000;fill-opacity:1;stroke:none;stroke-width:1px;stroke-linecap:butt;stroke-linejoin:miter;stroke-opacity:1"
       x="229.31033"
       y="504.08636"
       id="text4150"
       sodipodi:linespacing="125%"><tspan
         sodipodi:role="line"
         id="tspan4152"
         x="229.31033"
         y="504.08636">setSensorThreshold~</tspan></text>
    <g
       id="g4568"
       transform="matrix(1.3308587,0,0,1,-4.4716489,0)">
      <path
         inkscape:connector-curvature="0"
         d="m 27.458598,450.8487 c 0.166667,5.8142 0.148688,11.64653 0.151484,17.4689 -0.0079,11.0368 -0.0308,22.07352 -0.04239,33.1103 0.06242,10.08638 -0.04644,20.16922 -0.128328,30.25332 -0.02772,3.83976 -0.06079,7.68118 -0.0097,11.52069 0.0033,0.17749 0.0065,0.35497 0.0098,0.53246 0,0 -5.558273,5.78927 -5.558273,5.78927 l 0,0 c 0.0065,-0.18883 0.01299,-0.37767 0.01949,-0.5665 0.127013,-3.94978 0.211611,-7.9046 0.314861,-11.85716 0.25738,-10.14926 0.462198,-20.30448 0.381203,-30.47088 -0.01532,-10.9666 -0.03127,-21.93431 -0.142435,-32.89891 -0.07378,-5.63285 -0.08371,-11.31098 -0.493281,-16.89293 0,0 5.497556,-5.98856 5.497556,-5.98856 z"
         id="path4154"
         style="fill:#000000;fill-opacity:0.67336683;stroke:none;stroke-width:2;stroke-linecap:round;stroke-linejoin:round;stroke-miterlimit:4;stroke-dasharray:none;stroke-dashoffset:0;stroke-opacity:1" />
      <path
         inkscape:connector-curvature="0"
         d="m 32.551255,450.86584 c 4.878351,-0.30943 9.778303,0.006 14.660792,0.12801 8.257305,0.18645 16.517428,0.22275 24.776846,0.25065 8.969213,0.0206 17.93846,0.0206 26.907654,0.0478 10.229743,0.026 20.459493,0.0309 30.689263,0.0157 9.99143,0.0229 19.97827,0.006 29.96663,-0.22168 10.13772,-0.2555 20.2602,-0.82192 30.39742,-1.10997 9.78146,-0.33647 19.54987,-0.91172 29.29951,-1.69716 11.42741,-0.81583 22.84429,-1.75135 34.28243,-2.43752 8.86518,-0.67823 17.74644,-1.14185 26.61467,-1.77998 5.63923,-0.42132 11.29064,-0.65142 16.94756,-0.71221 5.46601,-0.10631 10.94078,-0.34395 16.39438,-0.71263 4.26688,-0.36346 8.53843,-0.68091 12.81826,-0.8862 1.71768,-0.26942 3.61435,0.18685 5.2804,-0.30118 1.70918,-0.46687 3.50199,-0.46767 5.26963,-0.49545 3.43069,-0.0313 6.86162,-0.0275 10.29242,-0.0516 1.71159,-0.009 3.42324,-0.0309 5.13406,-0.0793 0.29782,-0.018 0.59547,-0.0114 0.89351,-0.004 0.35591,0.004 0.71181,-0.002 1.06758,-0.0106 0.60473,-0.0204 0.11478,-0.0477 0.66524,1.22034 0,0 -11.7276,4.82413 -11.7276,4.82413 l 0,0 c 0.80494,0.93133 1.11752,0.86309 0.617,0.84589 -0.3453,-0.009 -0.69074,-0.0146 -1.0362,-0.0107 -0.29412,0.006 -0.58794,0.0147 -0.88157,-0.007 -1.62402,-0.0587 -3.24952,-0.0785 -4.87469,-0.0863 -3.44038,-0.0166 -6.88284,-0.0194 -10.32021,0.13106 -1.79314,0.11567 -3.55834,0.32316 -5.31051,0.69359 -1.73312,0.0535 -3.46885,0.003 -5.20173,0.0795 -4.18245,0.1451 -8.35582,0.42067 -12.52731,0.72854 -5.48731,0.34634 -10.98736,0.62536 -16.48761,0.69816 -5.57784,0.10618 -11.15539,0.26498 -16.72057,0.63907 -8.73416,0.5352 -17.4801,0.88861 -26.20919,1.49835 -11.46572,0.68029 -22.91199,1.59295 -34.35642,2.51866 -9.78871,0.8095 -19.59767,1.39011 -29.42186,1.70094 -10.10475,0.2755 -20.19821,0.79018 -30.30354,1.04283 -10.00701,0.26222 -20.0139,0.28623 -30.02483,0.22487 -10.24775,-0.0144 -20.495472,-0.007 -30.743191,0.0199 -9.001486,0.0274 -18.003073,0.0327 -27.004585,0.0115 -8.313782,-0.0241 -16.627592,-0.0619 -24.940727,-0.16454 -5.025681,-0.0548 -10.108945,-0.32547 -15.09349,0.38711 0,0 10.210578,-6.93846 10.210578,-6.93846 z"
         id="path4156"
         style="fill:#000000;fill-opacity:0.67336683;stroke:none;stroke-width:2;stroke-linecap:round;stroke-linejoin:round;stroke-miterlimit:4;stroke-dasharray:none;stroke-dashoffset:0;stroke-opacity:1" />
      <path
         inkscape:connector-curvature="0"
         d="m 343.35121,443.07442 c 0.10729,3.11063 0.40327,6.20967 0.71048,9.29987 0.62477,6.17506 0.74809,12.39702 0.84826,18.60907 0.007,7.00663 0.16444,14.00489 0.755,20.97761 0.69859,5.59265 1.39408,11.18285 1.77052,16.82151 0.34037,3.75226 0.17418,7.50956 -0.015,11.26327 -0.19736,1.997 -0.43973,3.99829 -0.86228,5.94675 -0.1534,0.71199 -0.38928,1.39043 -0.52256,2.10838 -0.0689,0.76293 -0.48221,1.41385 -0.82837,2.05545 -0.53694,0.80808 -0.8857,1.71086 -1.07041,2.71284 -0.0946,0.48689 -0.1191,0.98761 -0.11947,1.48593 0.0323,0.17745 0.0647,0.3549 0.097,0.53235 0,0 -8.94947,4.33147 -8.94947,4.33147 l 0,0 c 0.083,0.12631 0.16609,0.25262 0.24913,0.37892 0.003,-0.57619 0.0507,-1.15045 0.0908,-1.72414 0.17922,-1.11802 0.37221,-2.20626 0.92471,-3.16122 0.33842,-0.50673 0.68058,-1.19703 0.93061,-1.58789 0.13026,-0.77882 0.30542,-1.5336 0.58935,-2.25495 0.5411,-1.87958 0.75722,-3.8533 1.07817,-5.79977 0.28494,-3.73456 0.54116,-7.4759 0.2569,-11.22583 -0.30908,-5.66189 -0.88519,-11.28655 -1.59542,-16.89618 -0.58809,-7.0054 -0.72473,-14.03789 -0.74729,-21.07623 -0.13723,-6.12955 -0.30065,-12.27534 -1.04511,-18.35124 -0.38424,-3.07593 -0.66946,-6.16855 -1.08463,-9.2371 0,0 8.53893,-5.20887 8.53893,-5.20887 z"
         id="path4158"
         style="fill:#000000;fill-opacity:0.67336683;stroke:none;stroke-width:2;stroke-linecap:round;stroke-linejoin:round;stroke-miterlimit:4;stroke-dasharray:none;stroke-dashoffset:0;stroke-opacity:1" />
      <path
         inkscape:connector-curvature="0"
         d="m 23.722755,528.00233 c 3.081308,-0.3033 6.204812,-0.29449 9.308077,-0.33131 5.974957,-0.0643 11.949954,0.0418 17.923123,-0.0823 8.722279,-0.12022 17.42436,-0.55334 26.123293,-1.01039 9.494382,-0.38645 18.994131,-0.72606 28.496252,-0.99633 9.92466,-0.48084 19.86992,-0.63404 29.80165,-0.99153 9.26007,-0.32416 18.5239,-0.54803 27.7758,-0.99049 9.35713,-0.38393 18.70981,-0.82333 28.06796,-1.19355 7.98358,-0.53969 15.99734,-0.70589 23.99654,-1.04892 8.04338,-0.38865 16.1015,-0.51389 24.15929,-0.59066 8.20773,-0.0396 16.40582,-0.37914 24.60942,-0.55787 6.1108,-0.28148 12.21711,-0.59736 18.33679,-0.75416 5.16206,-0.15717 10.31213,-0.44819 15.47791,-0.57176 6.5795,-0.35919 13.17039,-0.53728 19.76479,-0.65064 6.40488,-0.10557 12.81157,-0.13367 19.21786,-0.1396 5.3669,0.11323 10.71601,-0.19767 16.06745,-0.4393 2.60342,-0.23194 5.32033,0.0401 7.83524,-0.57532 1.24639,-0.31111 2.57185,-0.31348 3.87122,-0.36336 0.83311,-0.0121 1.66589,-0.0362 2.49912,-0.0439 0.60849,-0.006 0.39403,0.15896 0.81556,0.7745 -0.0283,0.14669 -0.0566,0.29338 -0.0849,0.44008 0,0 -11.83961,3.69125 -11.83961,3.69125 l 0,0 c 0.11503,0.0254 0.23006,0.0508 0.34509,0.0763 0.4454,0.48623 0.86846,0.62075 0.33687,0.61265 -0.78676,-0.007 -1.57441,-0.002 -2.35942,0.0413 -1.26864,0.0688 -2.50725,0.23221 -3.7319,0.48854 -2.52957,0.27908 -5.11809,0.0834 -7.66057,0.27245 -5.3177,0.20169 -10.63516,0.42025 -15.96291,0.32115 -6.36502,0.007 -12.73065,-7.4e-4 -19.09461,0.0999 -6.6384,0.13427 -13.26764,0.38355 -19.89179,0.73376 -5.17736,0.16963 -10.34241,0.50168 -15.52357,0.59172 -6.0415,0.15024 -12.07361,0.42657 -18.11216,0.62588 -8.17925,0.15881 -16.35398,0.45037 -24.53625,0.50411 -8.07263,0.0996 -16.14391,0.27206 -24.20213,0.65776 -7.96715,0.30612 -15.93967,0.5331 -23.89531,0.9918 -9.32684,0.36145 -18.65411,0.72465 -27.97537,1.15584 -9.2625,0.44205 -18.53542,0.69388 -27.80815,0.98638 -9.92245,0.2957 -19.85102,0.48694 -29.76238,0.96716 -9.512421,0.31451 -19.027119,0.61834 -28.531196,1.04694 -8.777968,0.46046 -17.558416,0.89841 -26.356328,1.09105 -6.061408,0.13505 -12.126016,0.0972 -18.187968,0.22174 -3.181892,0.0844 -6.400432,0.12975 -9.520254,0.64636 0,0 10.207431,-5.70723 10.207431,-5.70723 z"
         id="path4160"
         style="fill:#000000;fill-opacity:0.67336683;stroke:none;stroke-width:2;stroke-linecap:round;stroke-linejoin:round;stroke-miterlimit:4;stroke-dasharray:none;stroke-dashoffset:0;stroke-opacity:1" />
    </g>
    <path
       style="fill:#000000;fill-opacity:0.6745098;stroke:none;stroke-width:2;stroke-linecap:round;stroke-linejoin:round;stroke-miterlimit:4;stroke-dasharray:none;stroke-dashoffset:0;stroke-opacity:1"
       id="path4162"
       d="m 52.95867,516.30458 c 1.931259,-0.63995 3.938742,-0.95681 5.956554,-1.15745 1.390942,-0.28808 2.719269,-0.81454 4.135078,-0.97415 1.330263,-0.0714 2.663331,-0.0439 3.994918,-0.0546 1.346025,0.006 2.692026,9.1e-4 4.038047,0.006 1.335453,-0.002 2.670885,10e-4 4.006353,0.007 1.224797,0.0135 2.449497,-0.0171 3.674199,-0.0191 0.791067,-0.009 1.582127,10e-4 2.373189,-0.009 0.499906,0.006 0.999903,-0.001 1.499616,-0.0153 0.611828,-0.006 1.085368,-0.0529 1.607709,0.28469 0.868545,0.41383 1.817423,0.50235 2.763913,0.56779 0.696268,0.0474 1.394223,0.0456 2.09147,0.0295 0.482645,-0.0146 0.96565,-0.007 1.448456,-0.008 0.278556,-0.002 0.557057,-0.008 0.835461,-0.0173 4.40684,-0.0341 -7.110055,5.20898 -10.678619,7.79485 -1.386286,0.62071 -2.856792,0.2205 -4.300476,0.0639 -1.875082,0.24747 -3.762204,0.34186 -5.650356,0.4282 -2.047957,-0.20287 -4.088843,-0.46739 -6.139899,-0.63905 -1.003758,-0.0838 -2.010666,-0.0876 -3.01699,-0.0868 -0.519225,-0.16539 -0.99276,0.14135 -1.3916,0.20158 -0.646351,0.0976 -1.479564,-0.075 -2.136521,-0.0991 -1.097015,-0.0523 -2.194857,-0.0762 -3.292892,-0.0911 -1.039369,-0.0725 -1.462531,-0.0202 -2.406847,0.38543 -0.819931,0.2816 -1.653916,0.40534 -2.510416,0.49467 -0.52198,0.0972 -1.214451,-0.24109 -1.474945,0.27885 28.674473,-16.31387 -0.318667,0.24586 -0.499613,0.33016 -3.729139,1.73716 7.114688,-4.13282 10.691643,-6.16496 1.011581,-0.5747 -0.815765,0.61981 -0.970648,0.72503 -36.568599,20.73451 6.391841,-3.77004 -1.562469,0.82569 -3.75068,2.16702 -7.50504,4.32767 -11.257561,6.4915 -0.224016,0.11614 -0.441542,0.24745 -0.675492,0.34274 -3.966319,-3.54162 7.005683,-7.93086 11.353758,-7.81146 1.550857,0.028 3.102035,0.031 4.653099,0.0349 2.018075,0.008 4.036151,0.0184 6.054254,0.0204 2.205521,-0.13422 4.369102,0.32561 6.550076,0.57801 2.305777,0.26728 4.582013,0.72254 6.896149,0.95317 1.246492,0.1191 2.498086,0.16113 3.749654,0.15566 0.367321,-0.004 0.734993,-0.0108 1.100834,-0.045 2.774106,-2.14982 -6.951668,5.87637 -10.711434,8.04765 -2.096954,0.20843 -4.202753,0.17347 -6.29652,0.40637 -2.917538,0.3173 -5.85659,0.75385 -8.793894,0.56558 -2.033117,-0.18097 -4.059896,-0.42211 -6.09787,-0.54333 -0.811648,-0.0547 -1.62474,-0.0467 -2.437455,-0.0407 -0.322508,0.003 -0.644942,0.011 -0.966928,0.0293 -0.165,-0.003 0.04587,0.0852 -0.188101,-0.007 -0.296278,-8.3e-4 -0.592364,-0.005 -0.888615,-0.007 -0.351164,0.008 -0.702047,-0.002 -1.053224,8.7e-4 -0.404917,-0.011 -0.810108,-0.005 -1.214973,0.006 -4.758105,0.23227 6.578532,-7.65667 10.957912,-7.56273 2.267428,0.0466 4.534896,0.0821 6.802865,0.0854 2.938891,0.005 5.877762,-0.009 8.816583,-0.0283 1.996122,-2.7e-4 3.992412,-0.01 5.988389,-0.0351 1.110313,0.25724 1.845211,-0.4684 2.852028,-0.69712 0.465677,-0.10207 0.926474,-0.23712 1.399711,-0.30176 4.425139,0.7351 -9.94773,2.88644 -10.788246,7.27649 -2.114628,0.20268 -4.254756,0.1968 -6.380171,0.2486 -2.437508,-0.0174 -4.892869,0.23638 -7.316027,-0.0706 -1.698337,-0.26907 -3.39862,-0.51943 -5.115517,-0.6273 -0.205562,-0.009 -0.413634,-0.0595 -0.616686,-0.0263 -0.153902,0.0252 -0.270256,0.17381 -0.424528,0.1966 -0.777297,0.11483 -1.764738,-0.10343 -2.555457,-0.14055 -0.656866,-0.0276 -1.314052,-0.0462 -1.971278,-0.0624 -4.329404,-0.55053 7.103829,-5.07264 10.702078,-7.54235 0.217846,0.006 0.435692,0.0123 0.653539,0.0185 0,0 -10.328098,7.50329 -10.328098,7.50329 l 0,0 c -0.234817,0.006 -0.469633,0.012 -0.70445,0.0181 23.266641,-17.30776 6.552102,-7.34082 10.156126,-7.52474 0.619051,0.054 1.239366,0.0929 1.860104,0.12118 1.216684,0.042 2.407325,-0.10857 3.614283,0.0265 1.683373,0.1785 3.346025,0.50037 5.027729,0.69286 2.398635,0.10652 4.800552,0.0174 7.200209,-0.0213 2.242814,-0.0632 4.50378,-0.28822 6.73887,-0.14556 4.276412,3.29144 -7.246616,4.77703 -10.045147,7.85177 -0.418983,0.11136 -0.841032,0.21369 -1.249471,0.36096 -0.990539,0.40724 -1.96529,0.4038 -3.027216,0.34143 -1.963759,-0.0257 -3.927854,-0.0347 -5.891765,-0.0351 -2.912858,-0.0199 -5.825767,-0.0335 -8.738697,-0.0283 -2.346317,0.003 -4.692151,0.0401 -7.037972,0.0854 -4.917645,0.0996 5.511656,-7.79126 9.860481,-7.56273 0.399598,0.0109 0.79953,0.0164 1.199197,0.006 0.35037,0.002 0.700458,-0.007 1.050809,9.2e-4 0.302443,-0.002 0.604725,-0.006 0.907186,-0.008 0.09427,-0.0552 0.09053,-0.0211 0.18797,-0.0101 0.313031,0.0126 0.626268,0.0185 0.939474,0.0253 0.803177,0.0218 1.604972,0.0984 2.404363,0.17497 1.977635,0.20207 3.947948,0.48484 5.934672,0.58481 2.904754,-0.006 5.788969,-0.3512 8.672343,-0.67735 2.06787,-0.17306 4.339383,-0.0444 6.255216,-0.92451 4.540213,-1.72642 -5.907951,9.15307 -9.775182,7.56938 -0.357316,-0.0221 -0.715341,-0.0299 -1.072934,-0.0469 -1.230415,-0.0627 -2.457183,-0.20233 -3.679919,-0.34808 -2.305522,-0.30043 -4.588509,-0.75772 -6.906661,-0.9589 -2.14149,-0.28168 -4.278768,-0.57778 -6.446628,-0.46061 -2.035256,0.002 -4.070496,0.012 -6.105738,0.0146 -1.570878,-10e-4 -3.141916,-0.007 -4.712667,0.0158 -5.763582,0.18775 8.497655,-2.11236 9.084142,-7.79635 0.193371,-0.12025 0.393041,-0.23092 0.590759,-0.34441 -35.64971,20.57687 26.457659,-15.11565 -9.154843,5.41305 0.342075,-0.1984 0.686172,-0.39398 1.027127,-0.59419 37.466674,-21.99983 -25.616058,14.74314 11.853342,-6.86838 0.554566,0.1 1.093469,0.0616 1.645829,-0.0518 0.80105,-0.1382 1.57263,-0.40223 2.352269,-0.62819 0.877731,-0.16768 1.773396,-0.0829 2.663474,-0.0698 1.079539,0.0367 2.157812,0.11061 3.238072,0.12771 1.206119,0.008 2.374602,-0.22707 3.583074,-0.15362 1.007331,0.0299 2.012424,0.11429 3.01353,0.22883 1.976957,0.24597 3.959094,0.56621 5.956362,0.52877 1.92849,-0.11108 3.8566,-0.40577 5.788069,-0.3025 1.448593,0.11089 2.771491,0.0319 4.144673,-0.47931 -3.304734,2.52778 -6.609469,5.05556 -9.914203,7.58334 -0.01633,0.002 -0.03332,0.0103 -0.049,0.005 -0.263365,-0.009 -0.526845,-0.0131 -0.790356,-0.0136 -0.486902,0.002 -0.974186,0.0155 -1.460899,-6.3e-4 -0.706004,-0.0285 -1.410261,-0.0768 -2.110513,-0.17589 -1.01457,-0.15035 -1.993614,-0.40224 -2.956674,-0.75613 -0.450056,0.14939 -0.947467,0.0318 -1.416621,0.0785 -0.485681,-0.0149 -0.971687,-0.0211 -1.45758,-0.0153 -0.782459,-0.0109 -1.564926,-6.2e-4 -2.347393,-0.009 -1.207205,-0.002 -2.414409,-0.0328 -3.621715,-0.0193 -1.340393,0.005 -2.68073,0.007 -4.021101,10e-4 -1.342338,5.1e-4 -2.684602,-0.0143 -4.026951,-0.003 -1.303623,0.003 -2.621187,0.002 -3.905809,0.24967 -1.351492,0.31693 -2.69297,0.6935 -4.07672,0.84837 -1.99682,0.27504 -3.984665,0.67605 -5.84067,1.49039 0,0 10.058571,-7.90967 10.058571,-7.90967 z"
       inkscape:connector-curvature="0" />
    <path
       style="fill:none;fill-rule:evenodd;stroke:#000000;stroke-width:1px;stroke-linecap:butt;stroke-linejoin:miter;stroke-opacity:1"
       d="M 62.068965,526.50014 51.724138,567.87945"
       id="path4166"
       inkscape:connector-curvature="0"
       sodipodi:nodetypes="cc" />
    <text
       xml:space="preserve"
       style="font-style:normal;font-weight:normal;font-size:15px;line-height:125%;font-family:sans-serif;text-align:start;letter-spacing:0px;word-spacing:0px;text-anchor:start;fill:#000000;fill-opacity:1;stroke:none;stroke-width:1px;stroke-linecap:butt;stroke-linejoin:miter;stroke-opacity:1"
       x="2.5220892"
       y="585.89117"
       id="text4419"
       sodipodi:linespacing="125%"><tspan
         sodipodi:role="line"
         x="2.5220892"
         y="585.89117"
         id="tspan4604">sends a bang when </tspan><tspan
         sodipodi:role="line"
         x="2.5220892"
         y="604.64117"
         id="tspan13972">sensor above the threshold</tspan></text>
    <path
       inkscape:connector-curvature="0"
       d="m 56.406946,455.09768 c 1.931259,-0.63995 3.938742,-0.95681 5.956554,-1.15745 1.390942,-0.28808 2.719269,-0.81454 4.135078,-0.97415 1.330263,-0.0714 2.663331,-0.0439 3.994918,-0.0546 1.346025,0.006 2.692026,9.1e-4 4.038047,0.006 1.335453,-0.002 2.670885,10e-4 4.006353,0.007 1.224797,0.0135 2.449497,-0.0171 3.674199,-0.0191 0.791067,-0.009 1.582127,0.001 2.373189,-0.009 0.499906,0.006 0.999903,-0.001 1.499616,-0.0153 0.611828,-0.006 1.085368,-0.0529 1.607709,0.28469 0.868545,0.41383 1.817423,0.50235 2.763913,0.56779 0.696268,0.0474 1.394223,0.0456 2.09147,0.0295 0.482645,-0.0146 0.96565,-0.007 1.448456,-0.008 0.278556,-0.002 0.557057,-0.008 0.835461,-0.0173 4.40684,-0.0341 -7.110055,5.20898 -10.678619,7.79485 -1.386286,0.62071 -2.856792,0.2205 -4.300476,0.0639 -1.875082,0.24747 -3.762204,0.34186 -5.650356,0.4282 -2.047957,-0.20287 -4.088843,-0.46739 -6.139899,-0.63905 -1.003758,-0.0838 -2.010666,-0.0876 -3.01699,-0.0868 -0.519225,-0.16539 -0.99276,0.14135 -1.3916,0.20158 -0.646351,0.0976 -1.479564,-0.075 -2.136521,-0.0991 -1.097015,-0.0523 -2.194857,-0.0762 -3.292892,-0.0911 -1.039369,-0.0725 -1.462531,-0.0202 -2.406847,0.38543 -0.819931,0.2816 -1.653916,0.40534 -2.510416,0.49467 -0.52198,0.0972 -1.214451,-0.24109 -1.474945,0.27885 28.674473,-16.31387 -0.318667,0.24586 -0.499613,0.33016 -3.729139,1.73716 7.114688,-4.13282 10.691643,-6.16496 1.011581,-0.5747 -0.815765,0.61981 -0.970648,0.72503 -36.568599,20.73451 6.391841,-3.77004 -1.562469,0.82569 -3.75068,2.16702 -7.50504,4.32767 -11.257561,6.4915 -0.224016,0.11614 -0.441542,0.24745 -0.675492,0.34274 -3.966319,-3.54162 7.005683,-7.93086 11.353758,-7.81146 1.550857,0.028 3.102035,0.031 4.653099,0.0349 2.018075,0.008 4.036151,0.0184 6.054254,0.0204 2.205521,-0.13422 4.369102,0.32561 6.550076,0.57801 2.305777,0.26728 4.582013,0.72254 6.896149,0.95317 1.246492,0.1191 2.498086,0.16113 3.749654,0.15566 0.367321,-0.004 0.734993,-0.0108 1.100834,-0.045 2.774106,-2.14982 -6.951668,5.87637 -10.711434,8.04765 -2.096954,0.20843 -4.202753,0.17347 -6.29652,0.40637 -2.917538,0.3173 -5.85659,0.75385 -8.793894,0.56558 -2.033117,-0.18097 -4.059896,-0.42211 -6.09787,-0.54333 -0.811648,-0.0547 -1.62474,-0.0467 -2.437455,-0.0407 -0.322508,0.003 -0.644942,0.011 -0.966928,0.0293 -0.165,-0.003 0.04587,0.0852 -0.188101,-0.007 -0.296278,-8.3e-4 -0.592364,-0.005 -0.888615,-0.007 -0.351164,0.008 -0.702047,-0.002 -1.053224,8.7e-4 -0.404917,-0.011 -0.810108,-0.005 -1.214973,0.006 -4.758105,0.23227 6.578532,-7.65667 10.957912,-7.56273 2.267428,0.0466 4.534896,0.0821 6.802865,0.0854 2.938891,0.005 5.877762,-0.009 8.816583,-0.0283 1.996122,-2.7e-4 3.992412,-0.01 5.988389,-0.0351 1.110313,0.25724 1.845211,-0.4684 2.852028,-0.69712 0.465677,-0.10207 0.926474,-0.23712 1.399711,-0.30176 4.425139,0.7351 -9.94773,2.88644 -10.788246,7.27649 -2.114628,0.20268 -4.254756,0.1968 -6.380171,0.2486 -2.437508,-0.0174 -4.892869,0.23638 -7.316027,-0.0706 -1.698337,-0.26907 -3.39862,-0.51943 -5.115517,-0.6273 -0.205562,-0.009 -0.413634,-0.0595 -0.616686,-0.0263 -0.153902,0.0252 -0.270256,0.17381 -0.424528,0.1966 -0.777297,0.11483 -1.764738,-0.10343 -2.555457,-0.14055 -0.656866,-0.0276 -1.314052,-0.0462 -1.971278,-0.0624 -4.329404,-0.55053 7.103829,-5.07264 10.702078,-7.54235 0.217846,0.006 0.435692,0.0123 0.653539,0.0185 0,0 -10.328098,7.50329 -10.328098,7.50329 l 0,0 c -0.234817,0.006 -0.469633,0.012 -0.70445,0.0181 23.266641,-17.30776 6.552102,-7.34082 10.156126,-7.52474 0.619051,0.054 1.239366,0.0929 1.860104,0.12118 1.216684,0.042 2.407325,-0.10857 3.614283,0.0265 1.683373,0.1785 3.346025,0.50037 5.027729,0.69286 2.398635,0.10652 4.800552,0.0174 7.200209,-0.0213 2.242814,-0.0632 4.50378,-0.28822 6.73887,-0.14556 4.276412,3.29144 -7.246616,4.77703 -10.045147,7.85177 -0.418983,0.11136 -0.841032,0.21369 -1.249471,0.36096 -0.990539,0.40724 -1.96529,0.4038 -3.027216,0.34143 -1.963759,-0.0257 -3.927854,-0.0347 -5.891765,-0.0351 -2.912858,-0.0199 -5.825767,-0.0335 -8.738697,-0.0283 -2.346317,0.003 -4.692151,0.0401 -7.037972,0.0854 -4.917645,0.0996 5.511656,-7.79126 9.860481,-7.56273 0.399598,0.0109 0.79953,0.0164 1.199197,0.006 0.35037,0.002 0.700458,-0.007 1.050809,9.2e-4 0.302443,-0.002 0.604725,-0.006 0.907186,-0.008 0.09427,-0.0552 0.09053,-0.0211 0.18797,-0.0101 0.313031,0.0126 0.626268,0.0185 0.939474,0.0253 0.803177,0.0218 1.604972,0.0984 2.404363,0.17497 1.977635,0.20207 3.947948,0.48484 5.934672,0.58481 2.904754,-0.006 5.788969,-0.3512 8.672343,-0.67735 2.06787,-0.17306 4.339383,-0.0444 6.255216,-0.92451 4.540213,-1.72642 -5.907951,9.15307 -9.775182,7.56938 -0.357316,-0.0221 -0.715341,-0.0299 -1.072934,-0.0469 -1.230415,-0.0627 -2.457183,-0.20233 -3.679919,-0.34808 -2.305522,-0.30043 -4.588509,-0.75772 -6.906661,-0.9589 -2.14149,-0.28168 -4.278768,-0.57778 -6.446628,-0.46061 -2.035256,0.002 -4.070496,0.012 -6.105738,0.0146 -1.570878,-10e-4 -3.141916,-0.007 -4.712667,0.0158 -5.763582,0.18775 8.497655,-2.11236 9.084142,-7.79635 0.193371,-0.12025 0.393041,-0.23092 0.590759,-0.34441 -35.64971,20.57687 26.457659,-15.11565 -9.154843,5.41305 0.342075,-0.1984 0.686172,-0.39398 1.027127,-0.59419 37.466674,-21.99983 -25.616058,14.74314 11.853342,-6.86838 0.554566,0.1 1.093469,0.0616 1.645829,-0.0518 0.80105,-0.1382 1.57263,-0.40223 2.352269,-0.62819 0.877731,-0.16768 1.773396,-0.0829 2.663474,-0.0698 1.079539,0.0367 2.157812,0.11061 3.238072,0.12771 1.206119,0.008 2.374602,-0.22707 3.583074,-0.15362 1.007331,0.0299 2.012424,0.11429 3.01353,0.22883 1.976957,0.24597 3.959094,0.56621 5.956362,0.52877 1.92849,-0.11108 3.8566,-0.40577 5.788069,-0.3025 1.448593,0.11089 2.771491,0.0319 4.144673,-0.47931 -3.304734,2.52778 -6.609469,5.05556 -9.914203,7.58334 -0.01633,0.002 -0.03332,0.0103 -0.049,0.005 -0.263365,-0.009 -0.526845,-0.0131 -0.790356,-0.0136 -0.486902,0.002 -0.974186,0.0155 -1.460899,-6.3e-4 -0.706004,-0.0285 -1.410261,-0.0768 -2.110513,-0.17589 -1.01457,-0.15035 -1.993614,-0.40224 -2.956674,-0.75613 -0.450056,0.14939 -0.947467,0.0318 -1.416621,0.0785 -0.485681,-0.0149 -0.971687,-0.0211 -1.45758,-0.0153 -0.782459,-0.0109 -1.564926,-6.2e-4 -2.347393,-0.009 -1.207205,-0.002 -2.414409,-0.0328 -3.621715,-0.0193 -1.340393,0.005 -2.68073,0.007 -4.021101,10e-4 -1.342338,5.1e-4 -2.684602,-0.0143 -4.026951,-0.003 -1.303623,0.003 -2.621187,0.002 -3.905809,0.24967 -1.351492,0.31693 -2.69297,0.6935 -4.07672,0.84837 -1.99682,0.27504 -3.984665,0.67605 -5.84067,1.49039 0,0 10.058571,-7.90967 10.058571,-7.90967 z"
       id="path4574"
       style="fill:#000000;fill-opacity:0.6745098;stroke:none;stroke-width:2;stroke-linecap:round;stroke-linejoin:round;stroke-miterlimit:4;stroke-dasharray:none;stroke-dashoffset:0;stroke-opacity:1" />
    <path
       inkscape:connector-curvature="0"
       id="path4576"
       d="m 29.310344,391.15531 43.103449,66.37931"
       style="fill:none;fill-rule:evenodd;stroke:#000000;stroke-width:1px;stroke-linecap:butt;stroke-linejoin:miter;stroke-opacity:1"
       sodipodi:nodetypes="cc" />
    <text
       sodipodi:linespacing="125%"
       id="text4578"
       y="382.44287"
       x="21.014803"
       style="font-style:normal;font-weight:normal;font-size:15px;line-height:125%;font-family:sans-serif;text-align:start;letter-spacing:0px;word-spacing:0px;text-anchor:start;fill:#000000;fill-opacity:1;stroke:none;stroke-width:1px;stroke-linecap:butt;stroke-linejoin:miter;stroke-opacity:1"
       xml:space="preserve"><tspan
         y="382.44287"
         x="21.014803"
         sodipodi:role="line"
         id="tspan4648">audio rate sensor signal</tspan></text>
    <path
       style="fill:#000000;fill-opacity:0.6745098;stroke:none;stroke-width:2;stroke-linecap:round;stroke-linejoin:round;stroke-miterlimit:4;stroke-dasharray:none;stroke-dashoffset:0;stroke-opacity:1"
       id="path5970"
       d="m 354.68281,449.92526 c 1.93126,-0.63995 3.93874,-0.95681 5.95655,-1.15745 1.39094,-0.28808 2.71927,-0.81454 4.13508,-0.97415 1.33026,-0.0714 2.66333,-0.0439 3.99492,-0.0546 1.34602,0.006 2.69202,9.1e-4 4.03804,0.006 1.33546,-0.002 2.67089,10e-4 4.00636,0.007 1.22479,0.0135 2.44949,-0.0171 3.6742,-0.0191 0.79106,-0.009 1.58212,0.001 2.37318,-0.009 0.49991,0.006 0.99991,-10e-4 1.49962,-0.0153 0.61183,-0.006 1.08537,-0.0529 1.60771,0.28469 0.86854,0.41383 1.81742,0.50235 2.76391,0.56779 0.69627,0.0474 1.39423,0.0456 2.09147,0.0295 0.48265,-0.0146 0.96565,-0.007 1.44846,-0.008 0.27855,-0.002 0.55706,-0.008 0.83546,-0.0173 4.40684,-0.0341 -7.11006,5.20898 -10.67862,7.79485 -1.38629,0.62071 -2.85679,0.2205 -4.30048,0.0639 -1.87508,0.24747 -3.7622,0.34186 -5.65035,0.4282 -2.04796,-0.20287 -4.08884,-0.46739 -6.1399,-0.63905 -1.00376,-0.0838 -2.01067,-0.0876 -3.01699,-0.0868 -0.51923,-0.16539 -0.99276,0.14135 -1.3916,0.20158 -0.64635,0.0976 -1.47956,-0.075 -2.13652,-0.0991 -1.09702,-0.0523 -2.19486,-0.0762 -3.29289,-0.0911 -1.03937,-0.0725 -1.46253,-0.0202 -2.40685,0.38543 -0.81993,0.2816 -1.65392,0.40534 -2.51042,0.49467 -0.52198,0.0972 -1.21445,-0.24109 -1.47494,0.27885 28.67447,-16.31387 -0.31867,0.24586 -0.49961,0.33016 -3.72914,1.73716 7.11468,-4.13282 10.69164,-6.16496 1.01158,-0.5747 -0.81577,0.61981 -0.97065,0.72503 -36.5686,20.73451 6.39184,-3.77004 -1.56247,0.82569 -3.75068,2.16702 -7.50504,4.32767 -11.25756,6.4915 -0.22402,0.11614 -0.44154,0.24745 -0.67549,0.34274 -3.96632,-3.54162 7.00568,-7.93086 11.35376,-7.81146 1.55085,0.028 3.10203,0.031 4.6531,0.0349 2.01807,0.008 4.03615,0.0184 6.05425,0.0204 2.20552,-0.13422 4.3691,0.32561 6.55008,0.57801 2.30577,0.26728 4.58201,0.72254 6.89614,0.95317 1.2465,0.1191 2.49809,0.16113 3.74966,0.15566 0.36732,-0.004 0.73499,-0.0108 1.10083,-0.045 2.77411,-2.14982 -6.95167,5.87637 -10.71143,8.04765 -2.09696,0.20843 -4.20275,0.17347 -6.29652,0.40637 -2.91754,0.3173 -5.85659,0.75385 -8.7939,0.56558 -2.03311,-0.18097 -4.05989,-0.42211 -6.09787,-0.54333 -0.81164,-0.0547 -1.62474,-0.0467 -2.43745,-0.0407 -0.32251,0.003 -0.64494,0.011 -0.96693,0.0293 -0.165,-0.003 0.0459,0.0852 -0.1881,-0.007 -0.29628,-8.3e-4 -0.59236,-0.005 -0.88861,-0.007 -0.35117,0.008 -0.70205,-0.002 -1.05323,8.7e-4 -0.40492,-0.011 -0.81011,-0.005 -1.21497,0.006 -4.75811,0.23227 6.57853,-7.65667 10.95791,-7.56273 2.26743,0.0466 4.5349,0.0821 6.80287,0.0854 2.93889,0.005 5.87776,-0.009 8.81658,-0.0283 1.99612,-2.7e-4 3.99241,-0.01 5.98839,-0.0351 1.11031,0.25724 1.84521,-0.4684 2.85203,-0.69712 0.46567,-0.10207 0.92647,-0.23712 1.39971,-0.30176 4.42514,0.7351 -9.94773,2.88644 -10.78825,7.27649 -2.11463,0.20268 -4.25476,0.1968 -6.38017,0.2486 -2.43751,-0.0174 -4.89287,0.23638 -7.31603,-0.0706 -1.69833,-0.26907 -3.39862,-0.51943 -5.11551,-0.6273 -0.20557,-0.009 -0.41364,-0.0595 -0.61669,-0.0263 -0.1539,0.0252 -0.27026,0.17381 -0.42453,0.1966 -0.7773,0.11483 -1.76474,-0.10343 -2.55546,-0.14055 -0.65686,-0.0276 -1.31405,-0.0462 -1.97127,-0.0624 -4.32941,-0.55053 7.10383,-5.07264 10.70207,-7.54235 0.21785,0.006 0.4357,0.0123 0.65354,0.0185 0,0 -10.32809,7.50329 -10.32809,7.50329 l 0,0 c -0.23482,0.006 -0.46964,0.012 -0.70445,0.0181 23.26664,-17.30776 6.5521,-7.34082 10.15612,-7.52474 0.61905,0.054 1.23937,0.0929 1.86011,0.12118 1.21668,0.042 2.40732,-0.10857 3.61428,0.0265 1.68337,0.1785 3.34602,0.50037 5.02773,0.69286 2.39863,0.10652 4.80055,0.0174 7.20021,-0.0213 2.24281,-0.0632 4.50378,-0.28822 6.73887,-0.14556 4.27641,3.29144 -7.24662,4.77703 -10.04515,7.85177 -0.41898,0.11136 -0.84103,0.21369 -1.24947,0.36096 -0.99054,0.40724 -1.96529,0.4038 -3.02722,0.34143 -1.96376,-0.0257 -3.92785,-0.0347 -5.89176,-0.0351 -2.91286,-0.0199 -5.82577,-0.0335 -8.7387,-0.0283 -2.34632,0.003 -4.69215,0.0401 -7.03797,0.0854 -4.91765,0.0996 5.51165,-7.79126 9.86048,-7.56273 0.3996,0.0109 0.79953,0.0164 1.1992,0.006 0.35037,0.002 0.70045,-0.007 1.05081,9.2e-4 0.30244,-0.002 0.60472,-0.006 0.90718,-0.008 0.0943,-0.0552 0.0905,-0.0211 0.18797,-0.0101 0.31303,0.0126 0.62627,0.0185 0.93948,0.0253 0.80317,0.0218 1.60497,0.0984 2.40436,0.17497 1.97763,0.20207 3.94795,0.48484 5.93467,0.58481 2.90475,-0.006 5.78897,-0.3512 8.67234,-0.67735 2.06787,-0.17306 4.33939,-0.0444 6.25522,-0.92451 4.54021,-1.72642 -5.90795,9.15307 -9.77518,7.56938 -0.35732,-0.0221 -0.71534,-0.0299 -1.07294,-0.0469 -1.23041,-0.0627 -2.45718,-0.20233 -3.67992,-0.34808 -2.30552,-0.30043 -4.5885,-0.75772 -6.90666,-0.9589 -2.14149,-0.28168 -4.27876,-0.57778 -6.44662,-0.46061 -2.03526,0.002 -4.0705,0.012 -6.10574,0.0146 -1.57088,-10e-4 -3.14192,-0.007 -4.71267,0.0158 -5.76358,0.18775 8.49766,-2.11236 9.08414,-7.79635 0.19337,-0.12025 0.39304,-0.23092 0.59076,-0.34441 -35.64971,20.57687 26.45766,-15.11565 -9.15484,5.41305 0.34207,-0.1984 0.68617,-0.39398 1.02713,-0.59419 37.46667,-21.99983 -25.61606,14.74314 11.85334,-6.86838 0.55456,0.1 1.09347,0.0616 1.64583,-0.0518 0.80105,-0.1382 1.57263,-0.40223 2.35227,-0.62819 0.87773,-0.16768 1.77339,-0.0829 2.66347,-0.0698 1.07954,0.0367 2.15781,0.11061 3.23807,0.12771 1.20612,0.008 2.3746,-0.22707 3.58308,-0.15362 1.00733,0.0299 2.01242,0.11429 3.01353,0.22883 1.97695,0.24597 3.95909,0.56621 5.95636,0.52877 1.92849,-0.11108 3.8566,-0.40577 5.78807,-0.3025 1.44859,0.11089 2.77149,0.0319 4.14467,-0.47931 -3.30473,2.52778 -6.60947,5.05556 -9.9142,7.58334 -0.0163,0.002 -0.0333,0.0103 -0.049,0.005 -0.26337,-0.009 -0.52685,-0.0131 -0.79036,-0.0136 -0.4869,0.002 -0.97419,0.0155 -1.4609,-6.3e-4 -0.706,-0.0285 -1.41026,-0.0768 -2.11051,-0.17589 -1.01457,-0.15035 -1.99362,-0.40224 -2.95668,-0.75613 -0.45005,0.14939 -0.94746,0.0318 -1.41662,0.0785 -0.48568,-0.0149 -0.97168,-0.0211 -1.45758,-0.0153 -0.78246,-0.0109 -1.56492,-6.2e-4 -2.34739,-0.009 -1.2072,-0.002 -2.41441,-0.0328 -3.62171,-0.0193 -1.3404,0.005 -2.68073,0.007 -4.02111,10e-4 -1.34233,5.1e-4 -2.6846,-0.0143 -4.02695,-0.003 -1.30362,0.003 -2.62118,0.002 -3.90581,0.24967 -1.35149,0.31693 -2.69297,0.6935 -4.07672,0.84837 -1.99682,0.27504 -3.98466,0.67605 -5.84067,1.49039 0,0 10.05858,-7.90967 10.05858,-7.90967 z"
       inkscape:connector-curvature="0" />
    <text
       xml:space="preserve"
       style="font-style:normal;font-weight:normal;font-size:15px;line-height:125%;font-family:sans-serif;text-align:start;letter-spacing:0px;word-spacing:0px;text-anchor:start;fill:#000000;fill-opacity:1;stroke:none;stroke-width:1px;stroke-linecap:butt;stroke-linejoin:miter;stroke-opacity:1"
       x="361.53204"
       y="583.30499"
       id="text5995"
       sodipodi:linespacing="125%"><tspan
         sodipodi:role="line"
         x="361.53204"
         y="583.30499"
         id="tspan6005">passes through the </tspan><tspan
         sodipodi:role="line"
         x="361.53204"
         y="602.05499"
         id="tspan13985">original signal</tspan></text>
    <text
       sodipodi:linespacing="125%"
       id="text4165"
       y="403.13254"
       x="261.53204"
       style="font-style:normal;font-weight:normal;font-size:15px;line-height:125%;font-family:sans-serif;text-align:start;letter-spacing:0px;word-spacing:0px;text-anchor:start;fill:#000000;fill-opacity:1;stroke:none;stroke-width:1px;stroke-linecap:butt;stroke-linejoin:miter;stroke-opacity:1"
       xml:space="preserve"><tspan
         y="403.13254"
         x="261.53204"
         sodipodi:role="line"
         id="tspan4178">message which sets the threshold</tspan></text>
    <path
       inkscape:connector-curvature="0"
       id="path4180"
       d="m 288.79311,411.84495 76.72413,48.27587"
       style="fill:none;fill-rule:evenodd;stroke:#000000;stroke-width:1px;stroke-linecap:butt;stroke-linejoin:miter;stroke-opacity:1"
       sodipodi:nodetypes="cc" />
    <path
       inkscape:connector-curvature="0"
       id="path13958"
       d="m 230.17241,519.60359 3.44827,99.13793"
       style="fill:none;fill-rule:evenodd;stroke:#000000;stroke-width:1px;stroke-linecap:butt;stroke-linejoin:miter;stroke-opacity:1"
       sodipodi:nodetypes="cc" />
    <path
       style="fill:none;fill-rule:evenodd;stroke:#000000;stroke-width:1px;stroke-linecap:butt;stroke-linejoin:miter;stroke-opacity:1"
       d="m 406.03448,514.43118 7.75862,50.86207"
       id="path13960"
       inkscape:connector-curvature="0"
       sodipodi:nodetypes="cc" />
    <path
       inkscape:connector-curvature="0"
       d="m 220.20005,511.99424 c 1.93126,-0.63995 3.93874,-0.95681 5.95655,-1.15745 1.39095,-0.28808 2.71927,-0.81454 4.13508,-0.97415 1.33026,-0.0714 2.66333,-0.0439 3.99492,-0.0546 1.34602,0.006 2.69203,9.1e-4 4.03805,0.006 1.33545,-0.002 2.67088,0.001 4.00635,0.007 1.2248,0.0135 2.4495,-0.0171 3.6742,-0.0191 0.79107,-0.009 1.58213,10e-4 2.37319,-0.009 0.4999,0.006 0.9999,-10e-4 1.49961,-0.0153 0.61183,-0.006 1.08537,-0.0529 1.60771,0.28469 0.86855,0.41383 1.81743,0.50235 2.76392,0.56779 0.69626,0.0474 1.39422,0.0456 2.09147,0.0295 0.48264,-0.0146 0.96565,-0.007 1.44845,-0.008 0.27856,-0.002 0.55706,-0.008 0.83546,-0.0173 4.40684,-0.0341 -7.11005,5.20898 -10.67862,7.79485 -1.38628,0.62071 -2.85679,0.2205 -4.30047,0.0639 -1.87508,0.24747 -3.76221,0.34186 -5.65036,0.4282 -2.04796,-0.20287 -4.08884,-0.46739 -6.1399,-0.63905 -1.00376,-0.0838 -2.01066,-0.0876 -3.01699,-0.0868 -0.51922,-0.16539 -0.99276,0.14135 -1.3916,0.20158 -0.64635,0.0976 -1.47956,-0.075 -2.13652,-0.0991 -1.09701,-0.0523 -2.19486,-0.0762 -3.29289,-0.0911 -1.03937,-0.0725 -1.46253,-0.0202 -2.40685,0.38543 -0.81993,0.2816 -1.65391,0.40534 -2.51041,0.49467 -0.52198,0.0972 -1.21445,-0.24109 -1.47495,0.27885 28.67447,-16.31387 -0.31867,0.24586 -0.49961,0.33016 -3.72914,1.73716 7.11469,-4.13282 10.69164,-6.16496 1.01158,-0.5747 -0.81576,0.61981 -0.97065,0.72503 -36.5686,20.73451 6.39184,-3.77004 -1.56247,0.82569 -3.75068,2.16702 -7.50504,4.32767 -11.25756,6.4915 -0.22401,0.11614 -0.44154,0.24745 -0.67549,0.34274 -3.96632,-3.54162 7.00568,-7.93086 11.35376,-7.81146 1.55086,0.028 3.10203,0.031 4.6531,0.0349 2.01807,0.008 4.03615,0.0184 6.05425,0.0204 2.20552,-0.13422 4.3691,0.32561 6.55008,0.57801 2.30578,0.26728 4.58201,0.72254 6.89615,0.95317 1.24649,0.1191 2.49808,0.16113 3.74965,0.15566 0.36732,-0.004 0.73499,-0.0108 1.10084,-0.045 2.7741,-2.14982 -6.95167,5.87637 -10.71144,8.04765 -2.09695,0.20843 -4.20275,0.17347 -6.29652,0.40637 -2.91754,0.3173 -5.85659,0.75385 -8.79389,0.56558 -2.03312,-0.18097 -4.0599,-0.42211 -6.09787,-0.54333 -0.81165,-0.0547 -1.62474,-0.0467 -2.43746,-0.0407 -0.32251,0.003 -0.64494,0.011 -0.96693,0.0293 -0.165,-0.003 0.0459,0.0852 -0.1881,-0.007 -0.29627,-8.3e-4 -0.59236,-0.005 -0.88861,-0.007 -0.35117,0.008 -0.70205,-0.002 -1.05323,8.7e-4 -0.40491,-0.011 -0.8101,-0.005 -1.21497,0.006 -4.7581,0.23227 6.57853,-7.65667 10.95791,-7.56273 2.26743,0.0466 4.5349,0.0821 6.80287,0.0854 2.93889,0.005 5.87776,-0.009 8.81658,-0.0283 1.99612,-2.7e-4 3.99241,-0.01 5.98839,-0.0351 1.11031,0.25724 1.84521,-0.4684 2.85203,-0.69712 0.46568,-0.10207 0.92647,-0.23712 1.39971,-0.30176 4.42514,0.7351 -9.94773,2.88644 -10.78825,7.27649 -2.11462,0.20268 -4.25475,0.1968 -6.38017,0.2486 -2.43751,-0.0174 -4.89287,0.23638 -7.31602,-0.0706 -1.69834,-0.26907 -3.39862,-0.51943 -5.11552,-0.6273 -0.20556,-0.009 -0.41364,-0.0595 -0.61669,-0.0263 -0.1539,0.0252 -0.27025,0.17381 -0.42453,0.1966 -0.77729,0.11483 -1.76473,-0.10343 -2.55545,-0.14055 -0.65687,-0.0276 -1.31405,-0.0462 -1.97128,-0.0624 -4.3294,-0.55053 7.10383,-5.07264 10.70208,-7.54235 0.21784,0.006 0.43569,0.0123 0.65354,0.0185 0,0 -10.3281,7.50329 -10.3281,7.50329 l 0,0 c -0.23482,0.006 -0.46963,0.012 -0.70445,0.0181 23.26664,-17.30776 6.5521,-7.34082 10.15612,-7.52474 0.61906,0.054 1.23937,0.0929 1.86011,0.12118 1.21668,0.042 2.40732,-0.10857 3.61428,0.0265 1.68337,0.1785 3.34603,0.50037 5.02773,0.69286 2.39864,0.10652 4.80055,0.0174 7.20021,-0.0213 2.24281,-0.0632 4.50378,-0.28822 6.73887,-0.14556 4.27641,3.29144 -7.24662,4.77703 -10.04515,7.85177 -0.41898,0.11136 -0.84103,0.21369 -1.24947,0.36096 -0.99054,0.40724 -1.96529,0.4038 -3.02721,0.34143 -1.96376,-0.0257 -3.92786,-0.0347 -5.89177,-0.0351 -2.91286,-0.0199 -5.82577,-0.0335 -8.7387,-0.0283 -2.34631,0.003 -4.69215,0.0401 -7.03797,0.0854 -4.91764,0.0996 5.51166,-7.79126 9.86048,-7.56273 0.3996,0.0109 0.79953,0.0164 1.1992,0.006 0.35037,0.002 0.70046,-0.007 1.05081,9.2e-4 0.30244,-0.002 0.60472,-0.006 0.90718,-0.008 0.0943,-0.0552 0.0905,-0.0211 0.18797,-0.0101 0.31304,0.0126 0.62627,0.0185 0.93948,0.0253 0.80318,0.0218 1.60497,0.0984 2.40436,0.17497 1.97764,0.20207 3.94795,0.48484 5.93467,0.58481 2.90476,-0.006 5.78897,-0.3512 8.67235,-0.67735 2.06787,-0.17306 4.33938,-0.0444 6.25521,-0.92451 4.54022,-1.72642 -5.90795,9.15307 -9.77518,7.56938 -0.35732,-0.0221 -0.71534,-0.0299 -1.07293,-0.0469 -1.23042,-0.0627 -2.45719,-0.20233 -3.67992,-0.34808 -2.30552,-0.30043 -4.58851,-0.75772 -6.90666,-0.9589 -2.14149,-0.28168 -4.27877,-0.57778 -6.44663,-0.46061 -2.03526,0.002 -4.0705,0.012 -6.10574,0.0146 -1.57088,-10e-4 -3.14192,-0.007 -4.71267,0.0158 -5.76358,0.18775 8.49766,-2.11236 9.08415,-7.79635 0.19337,-0.12025 0.39304,-0.23092 0.59075,-0.34441 -35.64971,20.57687 26.45766,-15.11565 -9.15484,5.41305 0.34208,-0.1984 0.68617,-0.39398 1.02713,-0.59419 37.46667,-21.99983 -25.61606,14.74314 11.85334,-6.86838 0.55457,0.1 1.09347,0.0616 1.64583,-0.0518 0.80105,-0.1382 1.57263,-0.40223 2.35227,-0.62819 0.87773,-0.16768 1.77339,-0.0829 2.66347,-0.0698 1.07954,0.0367 2.15781,0.11061 3.23807,0.12771 1.20612,0.008 2.37461,-0.22707 3.58308,-0.15362 1.00733,0.0299 2.01242,0.11429 3.01353,0.22883 1.97696,0.24597 3.95909,0.56621 5.95636,0.52877 1.92849,-0.11108 3.8566,-0.40577 5.78807,-0.3025 1.44859,0.11089 2.77149,0.0319 4.14467,-0.47931 -3.30473,2.52778 -6.60947,5.05556 -9.9142,7.58334 -0.0163,0.002 -0.0333,0.0103 -0.049,0.005 -0.26337,-0.009 -0.52685,-0.0131 -0.79036,-0.0136 -0.4869,0.002 -0.97418,0.0155 -1.4609,-6.3e-4 -0.706,-0.0285 -1.41026,-0.0768 -2.11051,-0.17589 -1.01457,-0.15035 -1.99361,-0.40224 -2.95667,-0.75613 -0.45006,0.14939 -0.94747,0.0318 -1.41662,0.0785 -0.48568,-0.0149 -0.97169,-0.0211 -1.45758,-0.0153 -0.78246,-0.0109 -1.56493,-6.2e-4 -2.3474,-0.009 -1.2072,-0.002 -2.41441,-0.0328 -3.62171,-0.0193 -1.34039,0.005 -2.68073,0.007 -4.0211,10e-4 -1.34234,5.1e-4 -2.6846,-0.0143 -4.02695,-0.003 -1.30363,0.003 -2.62119,0.002 -3.90581,0.24967 -1.35149,0.31693 -2.69297,0.6935 -4.07672,0.84837 -1.99682,0.27504 -3.98467,0.67605 -5.84067,1.49039 0,0 10.05857,-7.90967 10.05857,-7.90967 z"
       id="path13962"
       style="fill:#000000;fill-opacity:0.6745098;stroke:none;stroke-width:2;stroke-linecap:round;stroke-linejoin:round;stroke-miterlimit:4;stroke-dasharray:none;stroke-dashoffset:0;stroke-opacity:1" />
    <path
       style="fill:#000000;fill-opacity:0.6745098;stroke:none;stroke-width:2;stroke-linecap:round;stroke-linejoin:round;stroke-miterlimit:4;stroke-dasharray:none;stroke-dashoffset:0;stroke-opacity:1"
       id="path13964"
       d="m 395.20005,507.6839 c 1.93126,-0.63995 3.93874,-0.95681 5.95655,-1.15745 1.39095,-0.28808 2.71927,-0.81454 4.13508,-0.97415 1.33026,-0.0714 2.66333,-0.0439 3.99492,-0.0546 1.34602,0.006 2.69203,9.1e-4 4.03805,0.006 1.33545,-0.002 2.67088,0.001 4.00635,0.007 1.2248,0.0135 2.4495,-0.0171 3.6742,-0.0191 0.79107,-0.009 1.58213,10e-4 2.37319,-0.009 0.4999,0.006 0.9999,-10e-4 1.49961,-0.0153 0.61183,-0.006 1.08537,-0.0529 1.60771,0.28469 0.86855,0.41383 1.81743,0.50235 2.76392,0.56779 0.69626,0.0474 1.39422,0.0456 2.09147,0.0295 0.48264,-0.0146 0.96565,-0.007 1.44845,-0.008 0.27856,-0.002 0.55706,-0.008 0.83546,-0.0173 4.40684,-0.0341 -7.11005,5.20898 -10.67862,7.79485 -1.38628,0.62071 -2.85679,0.2205 -4.30047,0.0639 -1.87508,0.24747 -3.76221,0.34186 -5.65036,0.4282 -2.04796,-0.20287 -4.08884,-0.46739 -6.1399,-0.63905 -1.00376,-0.0838 -2.01066,-0.0876 -3.01699,-0.0868 -0.51922,-0.16539 -0.99276,0.14135 -1.3916,0.20158 -0.64635,0.0976 -1.47956,-0.075 -2.13652,-0.0991 -1.09701,-0.0523 -2.19486,-0.0762 -3.29289,-0.0911 -1.03937,-0.0725 -1.46253,-0.0202 -2.40685,0.38543 -0.81993,0.2816 -1.65391,0.40534 -2.51041,0.49467 -0.52198,0.0972 -1.21445,-0.24109 -1.47495,0.27885 28.67447,-16.31387 -0.31867,0.24586 -0.49961,0.33016 -3.72914,1.73716 7.11469,-4.13282 10.69164,-6.16496 1.01158,-0.5747 -0.81576,0.61981 -0.97065,0.72503 -36.5686,20.73451 6.39184,-3.77004 -1.56247,0.82569 -3.75068,2.16702 -7.50504,4.32767 -11.25756,6.4915 -0.22401,0.11614 -0.44154,0.24745 -0.67549,0.34274 -3.96632,-3.54162 7.00568,-7.93086 11.35376,-7.81146 1.55086,0.028 3.10203,0.031 4.6531,0.0349 2.01807,0.008 4.03615,0.0184 6.05425,0.0204 2.20552,-0.13422 4.3691,0.32561 6.55008,0.57801 2.30578,0.26728 4.58201,0.72254 6.89615,0.95317 1.24649,0.1191 2.49808,0.16113 3.74965,0.15566 0.36732,-0.004 0.73499,-0.0108 1.10084,-0.045 2.7741,-2.14982 -6.95167,5.87637 -10.71144,8.04765 -2.09695,0.20843 -4.20275,0.17347 -6.29652,0.40637 -2.91754,0.3173 -5.85659,0.75385 -8.79389,0.56558 -2.03312,-0.18097 -4.0599,-0.42211 -6.09787,-0.54333 -0.81165,-0.0547 -1.62474,-0.0467 -2.43746,-0.0407 -0.32251,0.003 -0.64494,0.011 -0.96693,0.0293 -0.165,-0.003 0.0459,0.0852 -0.1881,-0.007 -0.29627,-8.3e-4 -0.59236,-0.005 -0.88861,-0.007 -0.35117,0.008 -0.70205,-0.002 -1.05323,8.7e-4 -0.40491,-0.011 -0.8101,-0.005 -1.21497,0.006 -4.7581,0.23227 6.57853,-7.65667 10.95791,-7.56273 2.26743,0.0466 4.5349,0.0821 6.80287,0.0854 2.93889,0.005 5.87776,-0.009 8.81658,-0.0283 1.99612,-2.7e-4 3.99241,-0.01 5.98839,-0.0351 1.11031,0.25724 1.84521,-0.4684 2.85203,-0.69712 0.46568,-0.10207 0.92647,-0.23712 1.39971,-0.30176 4.42514,0.7351 -9.94773,2.88644 -10.78825,7.27649 -2.11462,0.20268 -4.25475,0.1968 -6.38017,0.2486 -2.43751,-0.0174 -4.89287,0.23638 -7.31602,-0.0706 -1.69834,-0.26907 -3.39862,-0.51943 -5.11552,-0.6273 -0.20556,-0.009 -0.41364,-0.0595 -0.61669,-0.0263 -0.1539,0.0252 -0.27025,0.17381 -0.42453,0.1966 -0.77729,0.11483 -1.76473,-0.10343 -2.55545,-0.14055 -0.65687,-0.0276 -1.31405,-0.0462 -1.97128,-0.0624 -4.3294,-0.55053 7.10383,-5.07264 10.70208,-7.54235 0.21784,0.006 0.43569,0.0123 0.65354,0.0185 0,0 -10.3281,7.50329 -10.3281,7.50329 l 0,0 c -0.23482,0.006 -0.46963,0.012 -0.70445,0.0181 23.26664,-17.30776 6.5521,-7.34082 10.15612,-7.52474 0.61906,0.054 1.23937,0.0929 1.86011,0.12118 1.21668,0.042 2.40732,-0.10857 3.61428,0.0265 1.68337,0.1785 3.34603,0.50037 5.02773,0.69286 2.39864,0.10652 4.80055,0.0174 7.20021,-0.0213 2.24281,-0.0632 4.50378,-0.28822 6.73887,-0.14556 4.27641,3.29144 -7.24662,4.77703 -10.04515,7.85177 -0.41898,0.11136 -0.84103,0.21369 -1.24947,0.36096 -0.99054,0.40724 -1.96529,0.4038 -3.02721,0.34143 -1.96376,-0.0257 -3.92786,-0.0347 -5.89177,-0.0351 -2.91286,-0.0199 -5.82577,-0.0335 -8.7387,-0.0283 -2.34631,0.003 -4.69215,0.0401 -7.03797,0.0854 -4.91764,0.0996 5.51166,-7.79126 9.86048,-7.56273 0.3996,0.0109 0.79953,0.0164 1.1992,0.006 0.35037,0.002 0.70046,-0.007 1.05081,9.2e-4 0.30244,-0.002 0.60472,-0.006 0.90718,-0.008 0.0943,-0.0552 0.0905,-0.0211 0.18797,-0.0101 0.31304,0.0126 0.62627,0.0185 0.93948,0.0253 0.80318,0.0218 1.60497,0.0984 2.40436,0.17497 1.97764,0.20207 3.94795,0.48484 5.93467,0.58481 2.90476,-0.006 5.78897,-0.3512 8.67235,-0.67735 2.06787,-0.17306 4.33938,-0.0444 6.25521,-0.92451 4.54022,-1.72642 -5.90795,9.15307 -9.77518,7.56938 -0.35732,-0.0221 -0.71534,-0.0299 -1.07293,-0.0469 -1.23042,-0.0627 -2.45719,-0.20233 -3.67992,-0.34808 -2.30552,-0.30043 -4.58851,-0.75772 -6.90666,-0.9589 -2.14149,-0.28168 -4.27877,-0.57778 -6.44663,-0.46061 -2.03526,0.002 -4.0705,0.012 -6.10574,0.0146 -1.57088,-10e-4 -3.14192,-0.007 -4.71267,0.0158 -5.76358,0.18775 8.49766,-2.11236 9.08415,-7.79635 0.19337,-0.12025 0.39304,-0.23092 0.59075,-0.34441 -35.64971,20.57687 26.45766,-15.11565 -9.15484,5.41305 0.34208,-0.1984 0.68617,-0.39398 1.02713,-0.59419 37.46667,-21.99983 -25.61606,14.74314 11.85334,-6.86838 0.55457,0.1 1.09347,0.0616 1.64583,-0.0518 0.80105,-0.1382 1.57263,-0.40223 2.35227,-0.62819 0.87773,-0.16768 1.77339,-0.0829 2.66347,-0.0698 1.07954,0.0367 2.15781,0.11061 3.23807,0.12771 1.20612,0.008 2.37461,-0.22707 3.58308,-0.15362 1.00733,0.0299 2.01242,0.11429 3.01353,0.22883 1.97696,0.24597 3.95909,0.56621 5.95636,0.52877 1.92849,-0.11108 3.8566,-0.40577 5.78807,-0.3025 1.44859,0.11089 2.77149,0.0319 4.14467,-0.47931 -3.30473,2.52778 -6.60947,5.05556 -9.9142,7.58334 -0.0163,0.002 -0.0333,0.0103 -0.049,0.005 -0.26337,-0.009 -0.52685,-0.0131 -0.79036,-0.0136 -0.4869,0.002 -0.97418,0.0155 -1.4609,-6.3e-4 -0.706,-0.0285 -1.41026,-0.0768 -2.11051,-0.17589 -1.01457,-0.15035 -1.99361,-0.40224 -2.95667,-0.75613 -0.45006,0.14939 -0.94747,0.0318 -1.41662,0.0785 -0.48568,-0.0149 -0.97169,-0.0211 -1.45758,-0.0153 -0.78246,-0.0109 -1.56493,-6.2e-4 -2.3474,-0.009 -1.2072,-0.002 -2.41441,-0.0328 -3.62171,-0.0193 -1.34039,0.005 -2.68073,0.007 -4.0211,10e-4 -1.34234,5.1e-4 -2.6846,-0.0143 -4.02695,-0.003 -1.30363,0.003 -2.62119,0.002 -3.90581,0.24967 -1.35149,0.31693 -2.69297,0.6935 -4.07672,0.84837 -1.99682,0.27504 -3.98467,0.67605 -5.84067,1.49039 0,0 10.05857,-7.90967 10.05857,-7.90967 z"
       inkscape:connector-curvature="0" />
    <text
       sodipodi:linespacing="125%"
       id="text13974"
       y="640.20148"
       x="156.83244"
       style="font-style:normal;font-weight:normal;font-size:15px;line-height:125%;font-family:sans-serif;text-align:start;letter-spacing:0px;word-spacing:0px;text-anchor:start;fill:#000000;fill-opacity:1;stroke:none;stroke-width:1px;stroke-linecap:butt;stroke-linejoin:miter;stroke-opacity:1"
       xml:space="preserve"><tspan
         id="tspan13976"
         y="640.20148"
         x="156.83244"
         sodipodi:role="line">sends a bang when </tspan><tspan
         id="tspan13978"
         y="658.95148"
         x="156.83244"
         sodipodi:role="line">sensor below the threshold</tspan></text>
  </g>
</svg>
