<?xml version="1.0" encoding="UTF-8" standalone="no"?>
<svg
   xmlns:dc="http://purl.org/dc/elements/1.1/"
   xmlns:cc="http://creativecommons.org/ns#"
   xmlns:rdf="http://www.w3.org/1999/02/22-rdf-syntax-ns#"
   xmlns:svg="http://www.w3.org/2000/svg"
   xmlns="http://www.w3.org/2000/svg"
   xmlns:sodipodi="http://sodipodi.sourceforge.net/DTD/sodipodi-0.dtd"
   xmlns:inkscape="http://www.inkscape.org/namespaces/inkscape"
   viewBox="0 0 93.150844 285.44083"
   id="svg2"
   version="1.1"
   inkscape:version="0.91 r13725"
   sodipodi:docname="ldr.svg"
   width="26.289238mm"
   height="80.557747mm">
  <metadata
     id="metadata539">
    <rdf:RDF>
      <cc:Work
         rdf:about="">
        <dc:format>image/svg+xml</dc:format>
        <dc:type
           rdf:resource="http://purl.org/dc/dcmitype/StillImage" />
        <dc:title>sensors_V7</dc:title>
      </cc:Work>
    </rdf:RDF>
  </metadata>
  <sodipodi:namedview
     pagecolor="#ffffff"
     bordercolor="#666666"
     borderopacity="1"
     objecttolerance="10"
     gridtolerance="10"
     guidetolerance="10"
     inkscape:pageopacity="0"
     inkscape:pageshadow="2"
     inkscape:window-width="1107"
     inkscape:window-height="689"
     id="namedview537"
     showgrid="false"
     inkscape:zoom="1.45"
     inkscape:cx="97.332841"
     inkscape:cy="134.50072"
     inkscape:window-x="136"
     inkscape:window-y="64"
     inkscape:window-maximized="0"
     inkscape:current-layer="svg2"
     units="mm"
     fit-margin-top="1"
     fit-margin-right="1"
     fit-margin-bottom="1"
     fit-margin-left="1" />
  <defs
     id="defs4">
    <style
       id="style6">.cls-1,.cls-3,.cls-4,.cls-5{fill:none;stroke-linecap:round;stroke-linejoin:round;}.cls-1{stroke:red;}.cls-2{font-size:8.5px;fill:blue;font-family:Helvetica, Helvetica;}.cls-3{stroke:blue;}.cls-4,.cls-5{stroke:#000;}.cls-4{stroke-width:0.07px;}</style>
  </defs>
  <title
     id="title8">sensors_V7</title>
  <line
     style="fill:none;stroke:#ff0000;stroke-linecap:round;stroke-linejoin:round"
     id="line13"
     y2="4.0504327"
     x2="89.100418"
     y1="46.570423"
     x1="89.100418"
     class="cls-1" />
  <line
     style="fill:none;stroke:#ff0000;stroke-linecap:round;stroke-linejoin:round"
     id="line15"
     y2="4.0504327"
     x2="4.0504284"
     y1="4.0504327"
     x1="89.100418"
     class="cls-1" />
  <line
     style="fill:none;stroke:#ff0000;stroke-linecap:round;stroke-linejoin:round"
     id="line17"
     y2="46.570423"
     x2="4.0504284"
     y1="4.0504327"
     x1="4.0504284"
     class="cls-1" />
  <line
     style="fill:none;stroke:#ff0000;stroke-linecap:round;stroke-linejoin:round"
     id="line19"
     y2="281.39041"
     x2="4.0504284"
     y1="46.570423"
     x1="4.0504284"
     class="cls-1" />
  <line
     style="fill:none;stroke:#ff0000;stroke-linecap:round;stroke-linejoin:round"
     id="line21"
     y2="281.39041"
     x2="89.100418"
     y1="281.39041"
     x1="4.0504284"
     class="cls-1" />
  <line
     style="fill:none;stroke:#ff0000;stroke-linecap:round;stroke-linejoin:round"
     id="line23"
     y2="190.11041"
     x2="89.100418"
     y1="281.39041"
     x1="89.100418"
     class="cls-1" />
  <line
     style="fill:none;stroke:#ff0000;stroke-linecap:round;stroke-linejoin:round"
     id="line25"
     y2="46.570423"
     x2="89.100418"
     y1="190.11041"
     x1="89.100418"
     class="cls-1" />
  <line
     style="fill:none;stroke:#ff0000;stroke-linecap:round;stroke-linejoin:round"
     id="line103"
     y2="46.570423"
     x2="4.0504284"
     y1="174.13043"
     x1="4.0504284"
     class="cls-1" />
  <polyline
     style="fill:none;stroke:#0000ff;stroke-linecap:round;stroke-linejoin:round"
     id="polyline156"
     points="475.46 150.02 475.46 265.15 475.46 341.69"
     class="cls-3"
     transform="translate(-431.57958,-145.96957)" />
  <polyline
     style="fill:none;stroke:#0000ff;stroke-linecap:round;stroke-linejoin:round"
     id="polyline158"
     points="503.95 150.02 503.95 334.38 503.95 416.21 512.5 416.21 512.5 150.02"
     class="cls-3"
     transform="translate(-431.57958,-145.96957)" />
  <polyline
     style="fill:none;stroke:#0000ff;stroke-linecap:round;stroke-linejoin:round"
     id="polyline160"
     points="475.46 334.38 475.46 350.19 467.04 350.13 467.04 265.09 466.88 150.02"
     class="cls-3"
     transform="translate(-431.57958,-145.96957)" />
  <path
     style="fill:none;stroke:#0000ff;stroke-linecap:round;stroke-linejoin:round"
     inkscape:connector-curvature="0"
     id="path162"
     d="m 71.590423,187.67043 c -0.07,2.11 -0.74,3.41 -1.81,4"
     class="cls-3" />
  <path
     style="fill:none;stroke:#0000ff;stroke-linecap:round;stroke-linejoin:round"
     inkscape:connector-curvature="0"
     id="path164"
     d="m 44.720423,187.67043 c 0.06,-2.12 0.74,-3.42 1.8,-4 a 5.41,5.41 0 0 1 3.47,-0.13 c 1.18,0.24 2.35,0.61 3.6,0.88 a 29.06,29.06 0 0 0 9.12,0 c 1.26,-0.27 2.42,-0.64 3.6,-0.88 a 5.41,5.41 0 0 1 3.47,0.13 c 1.07,0.55 1.74,1.85 1.81,4 l 5.51,0"
     class="cls-3" />
  <polyline
     style="fill:none;stroke:#0000ff;stroke-linecap:round;stroke-linejoin:round"
     id="polyline166"
     points="444.93 150.02 444.93 334.38 444.93 416.21 453.47 416.21 453.47 150.02"
     class="cls-3"
     transform="translate(-431.57958,-145.96957)" />
  <line
     style="fill:none;stroke:#0000ff;stroke-linecap:round;stroke-linejoin:round"
     id="line168"
     y2="191.31042"
     x2="64.450424"
     y1="184.02042"
     x1="64.450424"
     class="cls-3" />
  <line
     style="fill:none;stroke:#0000ff;stroke-linecap:round;stroke-linejoin:round"
     id="line170"
     y2="190.99042"
     x2="53.100414"
     y1="184.34042"
     x1="53.100414"
     class="cls-3" />
  <line
     style="fill:none;stroke:#0000ff;stroke-linecap:round;stroke-linejoin:round"
     id="line172"
     y2="191.81042"
     x2="49.740429"
     y1="183.52042"
     x1="49.740429"
     class="cls-3" />
  <path
     style="fill:none;stroke:#0000ff;stroke-linecap:round;stroke-linejoin:round"
     inkscape:connector-curvature="0"
     id="path174"
     d="m 76.830423,226.57043 c 0.62,6.28 0.28,12 0.69,18.92 0.21,3.49 0.61,7.27 -0.55,9.57 -2.83,5.6 -14.91,2.4 -23.25,2.05"
     class="cls-3" />
  <path
     style="fill:none;stroke:#0000ff;stroke-linecap:round;stroke-linejoin:round"
     inkscape:connector-curvature="0"
     id="path176"
     d="m 16.430423,226.57043 c -0.62,6.28 -0.28,12 -0.69,18.92 -0.21,3.49 -0.61,7.27 0.55,9.57 2.82,5.6 14.9,2.4 23.25,2.05"
     class="cls-3" />
  <circle
     style="fill:none;stroke:#0000ff;stroke-linecap:round;stroke-linejoin:round"
     id="circle178"
     r="7.0900002"
     cy="257.11041"
     cx="46.630413"
     class="cls-3" />
  <text
     style="font-size:8.5px;font-family:Helvetica, Helvetica;fill:#0000ff"
     id="text180"
     class="cls-2"
     x="47.830425"
     y="34.750431">L D R</text>
  <line
     style="fill:none;stroke:#0000ff;stroke-linecap:round;stroke-linejoin:round"
     id="line298"
     y2="46.570423"
     x2="89.100418"
     y1="46.570423"
     x1="4.0504284"
     class="cls-3" />
</svg>
